<svg xmlns="http://www.w3.org/2000/svg" width="72" height="62" viewBox="0 0 72 62">
  <g id="__TEMP__SVG__" transform="translate(-1.125 -3.375)">
    <path id="Path_13313" data-name="Path 13313" d="M37.125,3.375a1.123,1.123,0,0,1,.556.147L72.56,23.4a1.117,1.117,0,0,1,0,1.942L37.681,45.226a1.123,1.123,0,0,1-1.112,0L1.69,25.345a1.117,1.117,0,0,1,0-1.942L36.569,3.522A1.123,1.123,0,0,1,37.125,3.375Zm32.619,21L37.125,5.781,4.506,24.374,37.125,42.967Z" transform="translate(0 0)" fill="#fff"/>
    <path id="Path_13314" data-name="Path 13314" d="M30.249,50.5a1.114,1.114,0,0,1-.543-.142L7.326,37.86a1.126,1.126,0,0,1-.576-.983v-20a1.119,1.119,0,1,1,2.238,0V36.214L30.249,48.09,51.51,36.214V16.875a1.119,1.119,0,1,1,2.238,0v20a1.126,1.126,0,0,1-.576.983l-22.38,12.5A1.114,1.114,0,0,1,30.249,50.5Z" transform="translate(6.876 14.873)" fill="#fff"/>
    <path id="Path_13315" data-name="Path 13315" d="M33.75,42.127A1.125,1.125,0,0,1,32.625,41V13.5a1.125,1.125,0,0,1,2.25,0V41A1.125,1.125,0,0,1,33.75,42.127Z" transform="translate(38.25 10.845)" fill="#fff"/>
    <path id="Path_13316" data-name="Path 13316" d="M18,43.626A1.125,1.125,0,0,1,16.875,42.5v-20a1.125,1.125,0,1,1,2.25,0v20A1.125,1.125,0,0,1,18,43.626Z" transform="translate(19.125 21.749)" fill="#fff"/>
  </g>
</svg>
