<svg xmlns="http://www.w3.org/2000/svg" width="70" height="73.051" viewBox="0 0 70 73.051">
  <g id="Group_10219" data-name="Group 10219" transform="translate(-504 -279.823)">
    <path id="Fill-1" d="M1.119,22.856a1.992,1.992,0,0,0,.936.85c1.393.6,3.237-.612,4.139-2.692s.487-4.258-.9-4.857-3.244.607-4.136,2.7a4.575,4.575,0,0,0-.037,4" transform="translate(504.297 283.072)" fill="#fff" fill-rule="evenodd"/>
    <path id="Fill-3" d="M11.2,4.956A2.546,2.546,0,1,1,13.739,7.5,2.549,2.549,0,0,1,11.2,4.956" transform="translate(508.669 277.414)" fill="#fff" fill-rule="evenodd"/>
    <path id="Fill-5" d="M13.225,27.9s2.093-.609,2.093-.658a91.391,91.391,0,0,1,.165-14.848,79.469,79.469,0,0,1,8.727,3.654c.51-.543.942-1.159,1.414-1.721a86.436,86.436,0,0,0-8.639-3.946A58.443,58.443,0,0,1,28.412,8.969c.036,0-.033-1.719,0-1.715A53.875,53.875,0,0,0,16.773,8.712a48.2,48.2,0,0,1,8.956-5c-.213-.134-1.143-.9-1.143-.9A44.053,44.053,0,0,0,14.365,8.838c-.775.722-.689,1.121-1.085,4.44A73,73,0,0,0,13.225,27.9" transform="translate(509.322 277.594)" fill="#fff" fill-rule="evenodd"/>
    <path id="Fill-7" d="M3.2,16.268a7.764,7.764,0,0,0,.522,1.084,33.275,33.275,0,0,1,9.174-5.977,50.669,50.669,0,0,0-7.242,8.306c.249.348.446.75.714,1.105,4.238-5.393,4.4-5.612,7.347-8.371a61.209,61.209,0,0,0-.1,14.947,17.183,17.183,0,0,1,1.925-.644c-.246-4.89-.8-10.563.459-16.82.342-1.813-.3-2.058-6.453-3.016a21.682,21.682,0,0,1-1.61,1.538l5.337,1.067A30.2,30.2,0,0,0,3.2,16.268" transform="translate(505.399 279.371)" fill="#fff" fill-rule="evenodd"/>
    <path id="Fill-9" d="M34.4,4.956A2.548,2.548,0,1,1,36.95,7.5,2.553,2.553,0,0,1,34.4,4.956" transform="translate(518.346 277.414)" fill="#fff" fill-rule="evenodd"/>
    <path id="Fill-11" d="M40.657,27.9s-2.1-.609-2.1-.658a91.734,91.734,0,0,0-.162-14.848,78.575,78.575,0,0,0-8.726,3.654c-.512-.543-.94-1.159-1.423-1.721a86.054,86.054,0,0,1,8.647-3.946A58.548,58.548,0,0,0,25.452,8.969c-.024,0,.045-1.719,0-1.715A53.654,53.654,0,0,1,37.1,8.712a47.885,47.885,0,0,0-8.956-5c.213-.134,1.136-.9,1.136-.9A43.741,43.741,0,0,1,39.5,8.838c.788.722.693,1.121,1.085,4.44A73.435,73.435,0,0,1,40.657,27.9" transform="translate(514.513 277.594)" fill="#fff" fill-rule="evenodd"/>
    <path id="Fill-13" d="M49.866,16.268a9.039,9.039,0,0,1-.512,1.084,33.056,33.056,0,0,0-9.2-5.977,50.181,50.181,0,0,1,7.255,8.306c-.253.348-.46.75-.712,1.105-4.245-5.393-4.413-5.612-7.361-8.371a61.2,61.2,0,0,1,.106,14.947,17.079,17.079,0,0,0-1.931-.644c.244-4.89.791-10.563-.46-16.82-.328-1.813.3-2.058,6.46-3.016.411.469.684.674,1.6,1.538L39.777,9.487a30.335,30.335,0,0,1,10.088,6.781" transform="translate(519.244 279.371)" fill="#fff" fill-rule="evenodd"/>
    <g id="Group-17" transform="translate(504 308.699)">
      <path id="Fill-15" d="M11.119,16.788C9,15.746,3.25,11.547,2.411,8.691A54.446,54.446,0,0,0,8.066,21.152a13.5,13.5,0,0,0-.982,1.817,39.878,39.878,0,0,1-5.6-12.13c.756,9.725,2.156,14.9,6.936,21.352a1.151,1.151,0,0,1-.1.168C1.271,24.9-1.593,12.624.867,3.669c.1-.352.27-1.3,1.11-1.335A56.719,56.719,0,0,0,11.4.724c.073-.021.168,2.017.3,2.878-1.724.742-9.071,1.725-9.13,1.729,2.918,4.988,8.674,8.011,8.884,8.13Z" transform="translate(0 -0.724)" fill="#fff" fill-rule="evenodd"/>
    </g>
    <path id="Fill-18" d="M41.789,39.036c2.117-1.042,7.869-5.241,8.708-8.1A54.446,54.446,0,0,1,44.842,43.4a11.988,11.988,0,0,1,.978,1.817,40.122,40.122,0,0,0,5.606-12.13c-.756,9.725-2.163,14.9-6.936,21.352-.011.014.089.168.089.168,7.061-7.458,9.929-19.737,7.462-28.691-.1-.352-.267-1.3-.829-1.335a69.293,69.293,0,0,1-9.713-1.61c-.059-.021-.162,2.017-.293,2.878,1.729.742,9.073,1.725,9.132,1.729-2.92,4.988-8.674,8.011-8.891,8.13Z" transform="translate(521.089 285.728)" fill="#fff" fill-rule="evenodd"/>
    <path id="Fill-20" d="M49.721,23.053A1.965,1.965,0,0,1,48.7,23.8c-1.436.467-3.167-.916-3.855-3.075s-.082-4.583,1.361-5.041,3.171.773,3.858,3.375a4.866,4.866,0,0,1-.348,4" transform="translate(522.56 282.898)" fill="#fff" fill-rule="evenodd"/>
    <path id="Fill-22" d="M20.639,28.575a5.575,5.575,0,1,1,5.579,5.57,5.576,5.576,0,0,1-5.579-5.57" transform="translate(512.564 285.964)" fill="#fff" fill-rule="evenodd"/>
    <path id="Fill-24" d="M25.5,66.041a28.815,28.815,0,0,0,2.947-.173c.87-9.385,1.052-13.064,1.064-17.279,0-1.532.079-2.764.079-2.888a91.122,91.122,0,0,0,12.249,5.224c.236-.3,1.777-2.744,1.839-2.715-3.845-1.764-7.784-3.242-11.559-5.125,5.71-1.1,9.932-2.064,15.01-4.719.083-.049-.418-3.273-.333-3.326a52.122,52.122,0,0,1-15.4,4.6A53.838,53.838,0,0,0,42.462,28.347a16.93,16.93,0,0,1-2.117-2.173A51.568,51.568,0,0,1,28.33,37.92c-1.41,1.034-1.834,1.368-2.235,2.352a5.994,5.994,0,0,0-.165,1.837c.02,2.756-.421,23.821-.428,23.933" transform="translate(514.459 286.832)" fill="#fff" fill-rule="evenodd"/>
    <path id="Fill-26" d="M30.438,66.041a28.932,28.932,0,0,1-2.954-.173C26.61,56.483,26.43,52.8,26.413,48.59c0-1.532-.073-2.764-.073-2.888a90.833,90.833,0,0,1-12.252,5.224c-.231-.3-1.775-2.744-1.84-2.715,3.847-1.764,7.793-3.242,11.567-5.125-5.707-1.1-9.922-2.064-15.013-4.719-.089-.049.425-3.273.332-3.326a52.08,52.08,0,0,0,15.406,4.6A53.757,53.757,0,0,1,13.466,28.347a16.775,16.775,0,0,0,2.129-2.173A51.672,51.672,0,0,0,27.6,37.92c1.41,1.034,1.834,1.368,2.235,2.352A5.93,5.93,0,0,1,30,42.108c-.01,2.756.431,23.821.443,23.933" transform="translate(507.606 286.832)" fill="#fff" fill-rule="evenodd"/>
  </g>
</svg>
