<svg id="soucs-logo" xmlns="http://www.w3.org/2000/svg" width="279.836" height="71.972" viewBox="0 0 279.836 71.972">
  <g id="Group-68" transform="translate(0 0)">
    <path id="Fill-1" d="M1.085,22.328a1.838,1.838,0,0,0,.864.784c1.286.552,2.988-.565,3.82-2.485s.45-3.93-.832-4.483-2.994.56-3.817,2.49a4.223,4.223,0,0,0-.034,3.694" transform="translate(0.222 5.229)" fill="#fff" fill-rule="evenodd"/>
    <path id="Fill-3" d="M11.2,4.76a2.35,2.35,0,1,1,2.347,2.352A2.353,2.353,0,0,1,11.2,4.76" transform="translate(3.658 0.787)" fill="#fff" fill-rule="evenodd"/>
    <path id="Fill-5" d="M13.2,25.967s1.932-.563,1.932-.608a84.348,84.348,0,0,1,.153-13.7,73.345,73.345,0,0,1,8.054,3.373c.471-.5.869-1.069,1.305-1.588A79.775,79.775,0,0,0,16.669,9.8,53.939,53.939,0,0,1,27.215,8.5c.033,0-.031-1.587,0-1.583A49.723,49.723,0,0,0,16.473,8.258a44.488,44.488,0,0,1,8.265-4.612c-.2-.123-1.055-.827-1.055-.827a40.658,40.658,0,0,0-9.433,5.555c-.715.666-.635,1.035-1,4.1a67.37,67.37,0,0,0-.05,13.494" transform="translate(4.209 0.922)" fill="#fff" fill-rule="evenodd"/>
    <path id="Fill-7" d="M3.2,15.545a7.166,7.166,0,0,0,.482,1,30.71,30.71,0,0,1,8.467-5.516,46.765,46.765,0,0,0-6.684,7.666c.23.321.411.693.659,1.02,3.911-4.978,4.065-5.179,6.781-7.725a56.492,56.492,0,0,0-.089,13.8,15.859,15.859,0,0,1,1.776-.594c-.227-4.513-.735-9.749.423-15.524.316-1.673-.277-1.9-5.956-2.783A20.01,20.01,0,0,1,7.572,8.3l4.926.984a27.877,27.877,0,0,0-9.3,6.258" transform="translate(1.045 2.249)" fill="#fff" fill-rule="evenodd"/>
    <path id="Fill-9" d="M34.4,4.76a2.352,2.352,0,1,1,2.352,2.352A2.357,2.357,0,0,1,34.4,4.76" transform="translate(11.239 0.787)" fill="#fff" fill-rule="evenodd"/>
    <path id="Fill-11" d="M39.485,25.967s-1.941-.563-1.941-.608a84.664,84.664,0,0,0-.15-13.7,72.52,72.52,0,0,0-8.053,3.373c-.472-.5-.868-1.069-1.313-1.588A79.423,79.423,0,0,1,36.008,9.8,54.036,54.036,0,0,0,25.451,8.5c-.023,0,.041-1.587,0-1.583A49.519,49.519,0,0,1,36.2,8.258a44.2,44.2,0,0,0-8.265-4.612c.2-.123,1.048-.827,1.048-.827a40.37,40.37,0,0,1,9.44,5.555c.727.666.639,1.035,1,4.1a67.776,67.776,0,0,1,.064,13.494" transform="translate(8.314 0.922)" fill="#fff" fill-rule="evenodd"/>
    <path id="Fill-13" d="M48.873,15.545a8.343,8.343,0,0,1-.472,1,30.509,30.509,0,0,0-8.487-5.516,46.314,46.314,0,0,1,6.7,7.666c-.233.321-.425.693-.657,1.02-3.918-4.978-4.073-5.179-6.794-7.725a56.479,56.479,0,0,1,.1,13.8,15.762,15.762,0,0,0-1.782-.594c.226-4.513.73-9.749-.425-15.524-.3-1.673.275-1.9,5.962-2.783.379.433.632.622,1.479,1.42l-4.93.984a28,28,0,0,1,9.311,6.258" transform="translate(12.084 2.249)" fill="#fff" fill-rule="evenodd"/>
    <g id="Group-17" transform="translate(0 30.477)">
      <path id="Fill-15" d="M10.262,15.55C8.308,14.588,3,10.713,2.225,8.077a50.25,50.25,0,0,0,5.219,11.5,12.455,12.455,0,0,0-.906,1.677A36.8,36.8,0,0,1,1.371,10.06c.7,8.975,1.99,13.754,6.4,19.707a1.062,1.062,0,0,1-.089.155C1.173,23.039-1.47,11.707.8,3.442c.09-.325.249-1.2,1.024-1.233a52.348,52.348,0,0,0,8.7-1.486c.068-.02.155,1.862.275,2.656-1.591.685-8.372,1.592-8.426,1.6,2.693,4.6,8.005,7.394,8.2,7.5Z" transform="translate(0 -0.724)" fill="#fff" fill-rule="evenodd"/>
    </g>
    <path id="Fill-18" d="M41.744,37.8c1.954-.962,7.262-4.837,8.037-7.473a50.25,50.25,0,0,1-5.219,11.5,11.063,11.063,0,0,1,.9,1.677,37.03,37.03,0,0,0,5.174-11.195c-.7,8.975-2,13.754-6.4,19.707-.011.013.082.155.082.155,6.517-6.883,9.164-18.216,6.887-26.48-.093-.325-.247-1.2-.766-1.233a63.953,63.953,0,0,1-8.965-1.486c-.054-.02-.15,1.862-.271,2.656,1.6.685,8.374,1.592,8.429,1.6-2.695,4.6-8.005,7.394-8.206,7.5Z" transform="translate(13.462 7.506)" fill="#fff" fill-rule="evenodd"/>
    <path id="Fill-20" d="M49.324,22.477a1.814,1.814,0,0,1-.938.687c-1.325.431-2.923-.845-3.558-2.838s-.076-4.23,1.256-4.653,2.927.714,3.561,3.115a4.491,4.491,0,0,1-.321,3.688" transform="translate(14.56 5.093)" fill="#fff" fill-rule="evenodd"/>
    <path id="Fill-22" d="M20.639,28.146a5.146,5.146,0,1,1,5.149,5.141,5.146,5.146,0,0,1-5.149-5.141" transform="translate(6.743 7.517)" fill="#fff" fill-rule="evenodd"/>
    <path id="Fill-24" d="M25.5,62.969a26.594,26.594,0,0,0,2.72-.159c.8-8.662.971-12.057.982-15.947,0-1.414.073-2.551.073-2.665a84.1,84.1,0,0,0,11.3,4.821c.218-.276,1.64-2.533,1.7-2.506-3.549-1.628-7.184-2.992-10.668-4.73,5.27-1.011,9.166-1.905,13.854-4.356.077-.045-.386-3.021-.308-3.07A48.106,48.106,0,0,1,30.943,38.6,49.689,49.689,0,0,0,41.154,28.18,15.625,15.625,0,0,1,39.2,26.174,47.594,47.594,0,0,1,28.112,37.014c-1.3.954-1.693,1.263-2.063,2.17a5.532,5.532,0,0,0-.153,1.7c.019,2.543-.389,21.985-.4,22.088" transform="translate(8.331 8.552)" fill="#fff" fill-rule="evenodd"/>
    <path id="Fill-26" d="M28.77,62.969a26.7,26.7,0,0,1-2.726-.159c-.807-8.662-.972-12.057-.988-15.947,0-1.414-.068-2.551-.068-2.665A83.833,83.833,0,0,1,13.68,49.018c-.214-.276-1.638-2.533-1.7-2.506,3.55-1.628,7.192-2.992,10.676-4.73C17.391,40.772,13.5,39.877,8.8,37.427c-.082-.045.393-3.021.306-3.07A48.067,48.067,0,0,0,23.326,38.6,49.615,49.615,0,0,1,13.105,28.18a15.482,15.482,0,0,0,1.965-2.006A47.69,47.69,0,0,0,26.155,37.014c1.3.954,1.693,1.263,2.063,2.17a5.473,5.473,0,0,1,.143,1.7c-.009,2.543.4,21.985.409,22.088" transform="translate(2.872 8.552)" fill="#fff" fill-rule="evenodd"/>
    <path id="Fill-28" d="M68.485,40.74a9.028,9.028,0,0,1-3.25-.528,6.034,6.034,0,0,1-2.257-1.473A5.858,5.858,0,0,1,61.661,36.5a9.265,9.265,0,0,1-.426-2.878V22.5H65.26V33.282a6.072,6.072,0,0,0,.245,1.845,3.388,3.388,0,0,0,.671,1.238,2.388,2.388,0,0,0,1.032.685,4.118,4.118,0,0,0,1.328.206,3.252,3.252,0,0,0,2.387-.9,4.21,4.21,0,0,0,.915-3.07V22.5h4.025V33.618a9.081,9.081,0,0,1-.439,2.891,5.9,5.9,0,0,1-1.34,2.257,6.026,6.026,0,0,1-2.3,1.458,9.51,9.51,0,0,1-3.3.516" transform="translate(20.006 7.351)" fill="#fff" fill-rule="evenodd"/>
    <path id="Fill-30" d="M74.11,26.286a21.288,21.288,0,0,1,2.527-.528,20.823,20.823,0,0,1,3.252-.245,7.911,7.911,0,0,1,2.876.451,4.316,4.316,0,0,1,1.82,1.278A4.988,4.988,0,0,1,85.54,29.2a10.407,10.407,0,0,1,.284,2.529v7.663H81.98v-7.2a5.19,5.19,0,0,0-.491-2.632,2,2,0,0,0-1.832-.773c-.275,0-.568.012-.877.038s-.585.056-.827.09V39.394H74.11Z" transform="translate(24.213 8.336)" fill="#fff" fill-rule="evenodd"/>
    <path id="Fill-32" d="M84.786,40.843h3.843V27.272H84.786Zm4.2-17.494a2.109,2.109,0,0,1-.685,1.664,2.446,2.446,0,0,1-3.224,0,2.365,2.365,0,0,1,0-3.329,2.446,2.446,0,0,1,3.224,0,2.11,2.11,0,0,1,.685,1.665Z" transform="translate(27.574 6.887)" fill="#fff" fill-rule="evenodd"/>
    <path id="Fill-34" d="M100.245,40.906h3.843V27.335h-3.843Zm4.206-17.494a2.109,2.109,0,0,1-.685,1.664,2.448,2.448,0,0,1-3.225,0,2.369,2.369,0,0,1,0-3.329,2.448,2.448,0,0,1,3.225,0,2.11,2.11,0,0,1,.685,1.665Zm-9.134-2.529a7.547,7.547,0,0,1,1.792.179,9.015,9.015,0,0,1,1.2.387l-.671,3.02a3.73,3.73,0,0,0-.917-.257,6.5,6.5,0,0,0-1.019-.078,3.137,3.137,0,0,0-1.174.194,1.814,1.814,0,0,0-.748.529,2.021,2.021,0,0,0-.386.8,4.112,4.112,0,0,0-.117,1.007v.671h4.747v3.2H93.279V40.906H89.434v-14.3a5.785,5.785,0,0,1,1.483-4.179,5.813,5.813,0,0,1,4.4-1.548Z" transform="translate(29.219 6.823)" fill="#fff" fill-rule="evenodd"/>
    <path id="Fill-35" d="M110.873,31.253a4.076,4.076,0,0,0-.169-.955,2.407,2.407,0,0,0-.438-.825,2.343,2.343,0,0,0-.748-.593,2.433,2.433,0,0,0-1.122-.232,2.587,2.587,0,0,0-1.111.219,2.281,2.281,0,0,0-.773.581,2.569,2.569,0,0,0-.476.838,5.449,5.449,0,0,0-.247.967Zm-9.032,1.47a8.294,8.294,0,0,1,.556-3.16,6.792,6.792,0,0,1,1.458-2.258,6.072,6.072,0,0,1,2.076-1.368,6.518,6.518,0,0,1,2.413-.463,6,6,0,0,1,4.567,1.767,7.28,7.28,0,0,1,1.677,5.2c0,.223-.008.468-.027.735s-.033.5-.05.708h-8.722a2.552,2.552,0,0,0,1.11,1.884,4.455,4.455,0,0,0,2.631.7,11.028,11.028,0,0,0,2.078-.2,7.829,7.829,0,0,0,1.665-.476l.515,3.122a5.279,5.279,0,0,1-.825.31,11.4,11.4,0,0,1-1.148.271c-.422.076-.873.141-1.356.192a13.507,13.507,0,0,1-1.443.078,8.6,8.6,0,0,1-3.188-.541,6.224,6.224,0,0,1-2.243-1.485,5.9,5.9,0,0,1-1.316-2.232,8.842,8.842,0,0,1-.427-2.787Z" transform="translate(33.273 8.323)" fill="#fff" fill-rule="evenodd"/>
    <path id="Fill-36" d="M116.246,34.017a4.7,4.7,0,0,0,.8,2.863,2.76,2.76,0,0,0,2.373,1.085c.342,0,.662-.013.954-.04s.533-.056.722-.09V30.842a3.41,3.41,0,0,0-.941-.387,4.587,4.587,0,0,0-1.174-.154q-2.736,0-2.736,3.716Zm8.7,6.449c-.345.1-.74.2-1.187.3s-.915.176-1.406.247-.99.123-1.5.166-.992.065-1.458.065a8.542,8.542,0,0,1-2.993-.49,6.02,6.02,0,0,1-2.22-1.406,6.1,6.1,0,0,1-1.38-2.22,8.462,8.462,0,0,1-.478-2.928,10.049,10.049,0,0,1,.413-2.98,6.483,6.483,0,0,1,1.187-2.259,5.076,5.076,0,0,1,1.9-1.418,6.359,6.359,0,0,1,2.566-.49,6.1,6.1,0,0,1,1.433.154,7.826,7.826,0,0,1,1.276.439V21.5l3.846-.618Z" transform="translate(36.698 6.824)" fill="#fff" fill-rule="evenodd"/>
    <path id="Fill-37" d="M136.013,40.842q-4.36,0-6.646-2.425t-2.282-6.89a10.567,10.567,0,0,1,.7-3.96,8.545,8.545,0,0,1,1.908-2.943,8.022,8.022,0,0,1,2.891-1.819,10.462,10.462,0,0,1,3.638-.62,11.691,11.691,0,0,1,2.064.168,13.424,13.424,0,0,1,1.627.387,8.2,8.2,0,0,1,1.161.451q.464.233.67.362l-1.162,3.25a9.8,9.8,0,0,0-1.921-.748,9.162,9.162,0,0,0-2.49-.309,5.482,5.482,0,0,0-1.819.309,4.139,4.139,0,0,0-1.573.992,4.951,4.951,0,0,0-1.1,1.769,7.4,7.4,0,0,0-.413,2.632,9.4,9.4,0,0,0,.271,2.308,4.913,4.913,0,0,0,.877,1.845A4.227,4.227,0,0,0,134,36.83a5.671,5.671,0,0,0,2.374.451,10.783,10.783,0,0,0,1.575-.1,11.519,11.519,0,0,0,1.239-.244,6.776,6.776,0,0,0,.954-.322c.275-.121.525-.232.748-.336L142,39.5a9.4,9.4,0,0,1-2.4.929,13.957,13.957,0,0,1-3.586.414" transform="translate(41.521 7.249)" fill="#fff" fill-rule="evenodd"/>
    <path id="Fill-38" d="M139.2,40.906V21.5l3.845-.62v6.5a7.864,7.864,0,0,1,.992-.247,6.282,6.282,0,0,1,1.174-.115,7.259,7.259,0,0,1,2.749.451,4.273,4.273,0,0,1,1.755,1.278,4.969,4.969,0,0,1,.929,1.961,10.916,10.916,0,0,1,.271,2.529v7.663h-3.845v-7.2a5.3,5.3,0,0,0-.478-2.632,1.908,1.908,0,0,0-1.767-.773,4.85,4.85,0,0,0-.967.09q-.454.09-.813.194v10.32Z" transform="translate(45.479 6.823)" fill="#fff" fill-rule="evenodd"/>
    <path id="Fill-39" d="M155.19,36.723q.567,0,1.083-.027a7.181,7.181,0,0,0,.825-.077V33.7a6.936,6.936,0,0,0-.7-.1,8.069,8.069,0,0,0-.853-.052,7.69,7.69,0,0,0-1.018.065,2.667,2.667,0,0,0-.838.245,1.451,1.451,0,0,0-.569.491,1.371,1.371,0,0,0-.206.773,1.316,1.316,0,0,0,.606,1.251,3.354,3.354,0,0,0,1.665.349m-.309-11.249a8.914,8.914,0,0,1,2.836.386,4.418,4.418,0,0,1,1.819,1.109,4.085,4.085,0,0,1,.969,1.755,8.678,8.678,0,0,1,.284,2.3v8q-.826.181-2.3.427a22.1,22.1,0,0,1-3.56.244,11.36,11.36,0,0,1-2.388-.231A5.2,5.2,0,0,1,150.7,38.7a3.487,3.487,0,0,1-1.186-1.38,4.769,4.769,0,0,1-.413-2.09,3.952,3.952,0,0,1,.478-2.014,3.674,3.674,0,0,1,1.276-1.315,5.786,5.786,0,0,1,1.832-.71,10.306,10.306,0,0,1,2.143-.219,12.28,12.28,0,0,1,1.328.065,5.8,5.8,0,0,1,.941.167v-.362a2.125,2.125,0,0,0-.593-1.573,2.871,2.871,0,0,0-2.063-.593,13.162,13.162,0,0,0-1.934.142,8.226,8.226,0,0,0-1.653.4l-.49-3.1c.223-.069.5-.143.839-.219s.7-.147,1.1-.207.815-.111,1.252-.155.881-.064,1.329-.064" transform="translate(48.713 8.323)" fill="#fff" fill-rule="evenodd"/>
    <path id="Fill-40" d="M167.117,32.2a5.317,5.317,0,0,0-.476-2.632,1.773,1.773,0,0,0-1.64-.773,7.284,7.284,0,0,0-.747.038c-.26.025-.508.056-.75.09V39.394h-3.844V26.286q.49-.129,1.148-.271t1.393-.259q.736-.115,1.51-.179t1.522-.065a6.409,6.409,0,0,1,2.388.374,5.385,5.385,0,0,1,1.51.89,6.535,6.535,0,0,1,1.895-.929A6.625,6.625,0,0,1,173,25.512a6.774,6.774,0,0,1,2.669.451,4.006,4.006,0,0,1,1.664,1.278,4.83,4.83,0,0,1,.853,1.961,12.706,12.706,0,0,1,.232,2.527v7.664h-3.845V32.2a5.3,5.3,0,0,0-.478-2.632,1.771,1.771,0,0,0-1.638-.773,3.5,3.5,0,0,0-.865.154,3.41,3.41,0,0,0-.915.387,5.947,5.947,0,0,1,.232,1.251c.034.439.05.909.05,1.406v7.406h-3.844Z" transform="translate(52.163 8.336)" fill="#fff" fill-rule="evenodd"/>
    <path id="Fill-41" d="M184.244,32.711a4.653,4.653,0,0,0-.8-2.851,2.777,2.777,0,0,0-2.373-1.071c-.344,0-.663.013-.954.038s-.535.056-.723.092v6.94a3.326,3.326,0,0,0,.942.386,4.528,4.528,0,0,0,1.173.155q2.736,0,2.736-3.69m3.922-.1a9.919,9.919,0,0,1-.387,2.864,6.441,6.441,0,0,1-1.134,2.22,5.13,5.13,0,0,1-1.859,1.445,6,6,0,0,1-2.554.515,6.958,6.958,0,0,1-1.5-.154,7.182,7.182,0,0,1-1.341-.439v5.109h-3.845V26.285c.344-.1.739-.2,1.187-.3s.915-.176,1.405-.245.99-.125,1.5-.167.994-.065,1.458-.065a8.336,8.336,0,0,1,2.994.5,5.918,5.918,0,0,1,3.6,3.651,8.6,8.6,0,0,1,.476,2.941" transform="translate(57.354 8.336)" fill="#fff" fill-rule="evenodd"/>
    <path id="Fill-42" d="M186.516,40.843h3.845V27.272h-3.845Zm4.2-17.494a2.112,2.112,0,0,1-.682,1.664,2.449,2.449,0,0,1-3.227,0,2.369,2.369,0,0,1,0-3.329,2.449,2.449,0,0,1,3.227,0,2.113,2.113,0,0,1,.682,1.665Z" transform="translate(60.811 6.887)" fill="#fff" fill-rule="evenodd"/>
    <path id="Fill-43" d="M200.1,32.594a4.829,4.829,0,0,0-.708-2.8,2.323,2.323,0,0,0-2.027-1.02,2.352,2.352,0,0,0-2.038,1.02,4.758,4.758,0,0,0-.723,2.8,4.893,4.893,0,0,0,.723,2.826,2.337,2.337,0,0,0,2.038,1.045,2.308,2.308,0,0,0,2.027-1.045,4.966,4.966,0,0,0,.708-2.826m3.922,0a8.806,8.806,0,0,1-.464,2.929,6.344,6.344,0,0,1-1.341,2.27,6.041,6.041,0,0,1-2.1,1.459,7.523,7.523,0,0,1-5.47,0,6.03,6.03,0,0,1-2.1-1.459,6.678,6.678,0,0,1-1.368-2.27,8.382,8.382,0,0,1-.491-2.929,8.093,8.093,0,0,1,.5-2.915,6.616,6.616,0,0,1,1.393-2.245,6.283,6.283,0,0,1,2.116-1.446,7.251,7.251,0,0,1,5.367,0,6.17,6.17,0,0,1,2.1,1.446,6.559,6.559,0,0,1,1.366,2.245,8.3,8.3,0,0,1,.49,2.915" transform="translate(62.297 8.323)" fill="#fff" fill-rule="evenodd"/>
    <path id="Fill-44" d="M202.1,26.286a21.289,21.289,0,0,1,2.527-.528,20.824,20.824,0,0,1,3.252-.245,7.911,7.911,0,0,1,2.876.451,4.317,4.317,0,0,1,1.82,1.278,4.989,4.989,0,0,1,.954,1.961,10.405,10.405,0,0,1,.284,2.529v7.663h-3.843v-7.2a5.189,5.189,0,0,0-.491-2.632,2,2,0,0,0-1.832-.773c-.275,0-.568.012-.877.038s-.585.056-.827.09V39.394H202.1Z" transform="translate(66.027 8.336)" fill="#fff" fill-rule="evenodd"/>
    <path id="Fill-45" d="M66.579,55.41a5.855,5.855,0,0,0,1.408-.141,2.622,2.622,0,0,0,.889-.387,1.3,1.3,0,0,0,.464-.581,2.064,2.064,0,0,0,.13-.748,1.731,1.731,0,0,0-.825-1.458,11.878,11.878,0,0,0-2.839-1.251c-.585-.207-1.17-.442-1.754-.71a6.468,6.468,0,0,1-1.575-1.006,4.781,4.781,0,0,1-1.134-1.471,4.6,4.6,0,0,1-.439-2.1,5.209,5.209,0,0,1,.464-2.232,4.786,4.786,0,0,1,1.315-1.69,6.03,6.03,0,0,1,2.064-1.071,9.272,9.272,0,0,1,2.736-.375,10.941,10.941,0,0,1,5.29,1.239L71.611,44.6a10.936,10.936,0,0,0-1.665-.685,7.208,7.208,0,0,0-2.2-.3,4.046,4.046,0,0,0-2.078.4,1.35,1.35,0,0,0-.633,1.226,1.411,1.411,0,0,0,.233.825,2.218,2.218,0,0,0,.658.606,5.707,5.707,0,0,0,.979.49q.555.219,1.226.452,1.393.517,2.425,1.019a6.461,6.461,0,0,1,1.717,1.174,4.258,4.258,0,0,1,1.019,1.573,6.311,6.311,0,0,1,.336,2.193,4.655,4.655,0,0,1-1.755,3.883,8.466,8.466,0,0,1-5.29,1.381,14.509,14.509,0,0,1-2.141-.143,13.649,13.649,0,0,1-1.69-.348,9.95,9.95,0,0,1-1.264-.438,9.825,9.825,0,0,1-.89-.439l1.136-3.2a10.078,10.078,0,0,0,1.974.785,10.19,10.19,0,0,0,2.876.349" transform="translate(19.797 13.13)" fill="#fff" fill-rule="evenodd"/>
    <path id="Fill-46" d="M71.192,50.62a7.992,7.992,0,0,1,.478-2.773,6.483,6.483,0,0,1,3.574-3.806,7.239,7.239,0,0,1,2.941-.568,9.163,9.163,0,0,1,3.741.75l-.8,3.069a9.726,9.726,0,0,0-1.186-.36,6.2,6.2,0,0,0-1.446-.155,3.041,3.041,0,0,0-2.541,1.057,4.352,4.352,0,0,0-.84,2.786,4.51,4.51,0,0,0,.788,2.839,3.294,3.294,0,0,0,2.748,1.006,9.4,9.4,0,0,0,1.5-.129,6.275,6.275,0,0,0,1.47-.414l.543,3.148a8.9,8.9,0,0,1-1.677.49,10.948,10.948,0,0,1-2.22.208,8.369,8.369,0,0,1-3.2-.555,6.032,6.032,0,0,1-2.206-1.51,5.87,5.87,0,0,1-1.264-2.258,9.577,9.577,0,0,1-.4-2.826" transform="translate(23.259 14.204)" fill="#fff" fill-rule="evenodd"/>
    <path id="Fill-47" d="M80.527,58.906V39.5l3.845-.62v6.5a7.872,7.872,0,0,1,.992-.247,6.283,6.283,0,0,1,1.174-.115,7.258,7.258,0,0,1,2.749.451,4.274,4.274,0,0,1,1.755,1.278,4.969,4.969,0,0,1,.929,1.961,10.917,10.917,0,0,1,.271,2.529v7.663H88.4v-7.2a5.3,5.3,0,0,0-.478-2.632,1.908,1.908,0,0,0-1.767-.773,4.849,4.849,0,0,0-.967.09q-.454.09-.813.194V58.906Z" transform="translate(26.309 12.704)" fill="#fff" fill-rule="evenodd"/>
    <path id="Fill-48" d="M100.039,50.594a4.829,4.829,0,0,0-.71-2.8,2.319,2.319,0,0,0-2.026-1.02,2.351,2.351,0,0,0-2.038,1.02,4.758,4.758,0,0,0-.723,2.8,4.893,4.893,0,0,0,.723,2.826A2.335,2.335,0,0,0,97.3,54.465a2.3,2.3,0,0,0,2.026-1.045,4.966,4.966,0,0,0,.71-2.826m3.922,0a8.8,8.8,0,0,1-.466,2.929,6.359,6.359,0,0,1-1.34,2.27,6.066,6.066,0,0,1-2.1,1.459,7.055,7.055,0,0,1-2.749.515,6.975,6.975,0,0,1-2.721-.515,6.029,6.029,0,0,1-2.1-1.459,6.635,6.635,0,0,1-1.368-2.27,8.383,8.383,0,0,1-.491-2.929,8.093,8.093,0,0,1,.5-2.915,6.617,6.617,0,0,1,1.394-2.245,6.283,6.283,0,0,1,2.116-1.446,6.833,6.833,0,0,1,2.669-.515,6.916,6.916,0,0,1,2.7.515,6.165,6.165,0,0,1,2.1,1.446,6.582,6.582,0,0,1,1.368,2.245,8.3,8.3,0,0,1,.49,2.915" transform="translate(29.607 14.204)" fill="#fff" fill-rule="evenodd"/>
    <path id="Fill-49" d="M110.968,50.594a4.829,4.829,0,0,0-.71-2.8,2.319,2.319,0,0,0-2.026-1.02,2.351,2.351,0,0,0-2.038,1.02,4.758,4.758,0,0,0-.723,2.8,4.893,4.893,0,0,0,.723,2.826,2.335,2.335,0,0,0,2.038,1.045,2.3,2.3,0,0,0,2.026-1.045,4.966,4.966,0,0,0,.71-2.826m3.922,0a8.8,8.8,0,0,1-.466,2.929,6.359,6.359,0,0,1-1.34,2.27,6.066,6.066,0,0,1-2.1,1.459,7.055,7.055,0,0,1-2.749.515,6.975,6.975,0,0,1-2.721-.515,6.029,6.029,0,0,1-2.1-1.459,6.635,6.635,0,0,1-1.368-2.27,8.383,8.383,0,0,1-.491-2.929,8.093,8.093,0,0,1,.5-2.915,6.618,6.618,0,0,1,1.394-2.245,6.284,6.284,0,0,1,2.116-1.446,6.833,6.833,0,0,1,2.669-.515,6.916,6.916,0,0,1,2.7.515,6.165,6.165,0,0,1,2.1,1.446,6.582,6.582,0,0,1,1.368,2.245,8.3,8.3,0,0,1,.49,2.915" transform="translate(33.178 14.204)" fill="#fff" fill-rule="evenodd"/>
    <path id="Fill-50" d="M118.384,59.164a9.642,9.642,0,0,1-2.722-.361,4.028,4.028,0,0,1-1.65-.942,3.1,3.1,0,0,1-.825-1.471,7.937,7.937,0,0,1-.22-1.948V39.5l3.845-.62V53.667a5.177,5.177,0,0,0,.077.93,1.591,1.591,0,0,0,.3.7,1.561,1.561,0,0,0,.632.464,3.5,3.5,0,0,0,1.11.232Z" transform="translate(36.907 12.704)" fill="#fff" fill-rule="evenodd"/>
    <path id="Fill-51" d="M122.329,54.645a3.856,3.856,0,0,0,1.5-.206.8.8,0,0,0,.439-.8.98.98,0,0,0-.568-.812,10.85,10.85,0,0,0-1.727-.787q-.905-.336-1.64-.7a4.854,4.854,0,0,1-1.251-.865,3.492,3.492,0,0,1-.8-1.2,4.462,4.462,0,0,1-.284-1.678,3.628,3.628,0,0,1,1.42-3.018,6.176,6.176,0,0,1,3.9-1.109,12.622,12.622,0,0,1,2.374.219,11.093,11.093,0,0,1,1.807.478l-.67,2.993a14.164,14.164,0,0,0-1.459-.413,7.9,7.9,0,0,0-1.767-.18q-1.805,0-1.806,1.006a1.031,1.031,0,0,0,.077.413.878.878,0,0,0,.31.349,4.359,4.359,0,0,0,.632.364c.268.129.606.273,1.019.429a15.732,15.732,0,0,1,2.091.923,5.043,5.043,0,0,1,1.3.983,3.012,3.012,0,0,1,.67,1.171,5.156,5.156,0,0,1,.194,1.493,3.438,3.438,0,0,1-1.51,3.038,7.517,7.517,0,0,1-4.269,1.031,12.307,12.307,0,0,1-3.006-.31,11.975,11.975,0,0,1-1.664-.516l.645-3.122a12.607,12.607,0,0,0,2.013.606,9.8,9.8,0,0,0,2.038.219" transform="translate(38.432 14.204)" fill="#fff" fill-rule="evenodd"/>
    <path id="Fill-52" d="M66.131,18.457a5.886,5.886,0,0,0,3.252-.763,2.734,2.734,0,0,0,1.161-2.47,3.3,3.3,0,0,0-.373-1.641,3.53,3.53,0,0,0-.994-1.113,6.482,6.482,0,0,0-1.418-.772q-.8-.32-1.678-.681a19.752,19.752,0,0,1-1.987-.9,6.755,6.755,0,0,1-1.5-1.043,3.949,3.949,0,0,1-.942-1.329,4.407,4.407,0,0,1-.322-1.754A4.154,4.154,0,0,1,62.854,2.51a6.736,6.736,0,0,1,4.234-1.187,9.66,9.66,0,0,1,1.418.1,10.934,10.934,0,0,1,1.3.271,10.314,10.314,0,0,1,1.109.374,4.407,4.407,0,0,1,.838.439l-.62,1.471a6.26,6.26,0,0,0-1.819-.827,8.306,8.306,0,0,0-2.308-.309,6.816,6.816,0,0,0-1.562.167,3.4,3.4,0,0,0-1.225.543,2.676,2.676,0,0,0-.813.942,2.9,2.9,0,0,0-.3,1.368,2.868,2.868,0,0,0,.31,1.393,3,3,0,0,0,.862.98,6.968,6.968,0,0,0,1.3.748q.75.336,1.625.7,1.061.44,2,.877a7.21,7.21,0,0,1,1.641,1.034,4.39,4.39,0,0,1,1.108,1.445,4.755,4.755,0,0,1,.413,2.09,4.183,4.183,0,0,1-1.689,3.638A7.713,7.713,0,0,1,66.1,19.98a12.568,12.568,0,0,1-1.881-.13,11.841,11.841,0,0,1-1.523-.322,8.647,8.647,0,0,1-1.134-.4,6.437,6.437,0,0,1-.723-.362l.567-1.522a7.632,7.632,0,0,0,.7.361,8.718,8.718,0,0,0,1.031.4,9.628,9.628,0,0,0,2.993.451" transform="translate(19.878 0.433)" fill="#fff" fill-rule="evenodd"/>
    <path id="Fill-53" d="M72.925,16.042a5.827,5.827,0,0,0,.58.387,5.378,5.378,0,0,0,.815.386,6.432,6.432,0,0,0,1.006.3,5.427,5.427,0,0,0,1.134.115,4.556,4.556,0,0,0,2.078-.426,3.653,3.653,0,0,0,1.356-1.161,4.924,4.924,0,0,0,.747-1.729,9.2,9.2,0,0,0,.232-2.1,5.689,5.689,0,0,0-1.316-4.039,4.54,4.54,0,0,0-3.483-1.406,13.892,13.892,0,0,0-2,.115,7.45,7.45,0,0,0-1.148.245Zm0,7.174H71.248V5.566a15.028,15.028,0,0,1,1.909-.491A15.381,15.381,0,0,1,76.1,4.843a7.157,7.157,0,0,1,2.669.478A5.766,5.766,0,0,1,80.834,6.7a6.3,6.3,0,0,1,1.343,2.194,8.356,8.356,0,0,1,.476,2.916,9.33,9.33,0,0,1-.4,2.8A6.236,6.236,0,0,1,81.079,16.8a5.372,5.372,0,0,1-1.9,1.432,6.074,6.074,0,0,1-2.569.516,6.313,6.313,0,0,1-2.282-.374,5.96,5.96,0,0,1-1.408-.708Z" transform="translate(23.278 1.583)" fill="#fff" fill-rule="evenodd"/>
    <path id="Fill-54" d="M90.794,10.713a5.31,5.31,0,0,0-.982-3.252A3.177,3.177,0,0,0,87.18,6.3a3.511,3.511,0,0,0-1.612.361,4.1,4.1,0,0,0-1.239.968A4.475,4.475,0,0,0,83.5,9.037a5.73,5.73,0,0,0-.349,1.677Zm-9.471,1.057a8.488,8.488,0,0,1,.5-3.057,6.752,6.752,0,0,1,1.316-2.181A5.178,5.178,0,0,1,85,5.23,5.656,5.656,0,0,1,87.155,4.8a5.029,5.029,0,0,1,3.908,1.6,7.132,7.132,0,0,1,1.459,4.929c0,.138-.005.275-.013.413s-.023.267-.038.387H83.1A5.9,5.9,0,0,0,84.316,15.9a4.526,4.526,0,0,0,3.613,1.316,7.352,7.352,0,0,0,2.169-.257,8.957,8.957,0,0,0,1.161-.439l.309,1.445a7.005,7.005,0,0,1-1.353.491,8.544,8.544,0,0,1-2.336.284,7.79,7.79,0,0,1-2.994-.516,5.341,5.341,0,0,1-2.038-1.445,5.685,5.685,0,0,1-1.161-2.206,10.2,10.2,0,0,1-.362-2.8Z" transform="translate(26.569 1.57)" fill="#fff" fill-rule="evenodd"/>
    <path id="Fill-55" d="M97.641,18.739a7.126,7.126,0,0,1-2.734-.491,5.121,5.121,0,0,1-1.974-1.406,6.26,6.26,0,0,1-1.2-2.193,9.129,9.129,0,0,1-.414-2.825,9.074,9.074,0,0,1,.427-2.866A6.436,6.436,0,0,1,92.971,6.74a5.414,5.414,0,0,1,1.936-1.433,6.254,6.254,0,0,1,2.554-.5,10.726,10.726,0,0,1,2.026.18,5.148,5.148,0,0,1,1.458.464L100.507,6.9a5.438,5.438,0,0,0-1.162-.414,7.779,7.779,0,0,0-1.73-.154,4.055,4.055,0,0,0-3.366,1.432A6.346,6.346,0,0,0,93.1,11.824,8.764,8.764,0,0,0,93.357,14a4.4,4.4,0,0,0,.84,1.7,3.926,3.926,0,0,0,1.5,1.109,5.567,5.567,0,0,0,2.233.4,5.814,5.814,0,0,0,1.819-.245,7.431,7.431,0,0,0,1.071-.426l.361,1.445a6.263,6.263,0,0,1-1.458.5,8.66,8.66,0,0,1-2.078.245" transform="translate(29.835 1.57)" fill="#fff" fill-rule="evenodd"/>
    <path id="Fill-56" d="M100.31,19.688h1.678V6.347H100.31Zm2.064-17.367a1.255,1.255,0,0,1-.36.942,1.278,1.278,0,0,1-1.755,0,1.246,1.246,0,0,1-.362-.942,1.246,1.246,0,0,1,.362-.942,1.278,1.278,0,0,1,1.755,0,1.255,1.255,0,0,1,.36.942Z" transform="translate(32.638 0.337)" fill="#fff" fill-rule="evenodd"/>
    <path id="Fill-57" d="M108.6,17.242q.979,0,1.717-.065a11.489,11.489,0,0,0,1.25-.167v-4.7a5.075,5.075,0,0,0-.9-.271,8.043,8.043,0,0,0-1.7-.142,9.719,9.719,0,0,0-1.288.09,3.727,3.727,0,0,0-1.239.386,2.585,2.585,0,0,0-.93.813,2.337,2.337,0,0,0-.36,1.368,2.932,2.932,0,0,0,.243,1.264,2.042,2.042,0,0,0,.7.827,3.1,3.1,0,0,0,1.084.451,6.579,6.579,0,0,0,1.432.142M108.45,4.8a5.911,5.911,0,0,1,2.232.374,3.86,3.86,0,0,1,1.485,1.032,4.076,4.076,0,0,1,.825,1.562,7.151,7.151,0,0,1,.259,1.961v8.413a7.521,7.521,0,0,1-.748.167c-.328.061-.707.125-1.136.194s-.909.125-1.433.168-1.063.064-1.613.064a7.686,7.686,0,0,1-1.948-.232,4.324,4.324,0,0,1-1.55-.736,3.459,3.459,0,0,1-1.031-1.29,4.451,4.451,0,0,1-.374-1.922,3.891,3.891,0,0,1,.413-1.857,3.489,3.489,0,0,1,1.161-1.278,5.192,5.192,0,0,1,1.78-.735,10.2,10.2,0,0,1,2.246-.232c.239,0,.494.013.76.038s.525.06.775.1.463.086.645.129a1.828,1.828,0,0,1,.373.115v-.825a8.7,8.7,0,0,0-.1-1.355,2.952,2.952,0,0,0-.452-1.187,2.508,2.508,0,0,0-.979-.852,3.679,3.679,0,0,0-1.665-.322,8.578,8.578,0,0,0-2.193.207q-.722.207-1.057.336l-.234-1.471a6.228,6.228,0,0,1,1.356-.387,11.544,11.544,0,0,1,2.206-.18" transform="translate(33.788 1.57)" fill="#fff" fill-rule="evenodd"/>
    <path id="Fill-58" d="M116.783,20.257a5.649,5.649,0,0,1-1.485-.22,2.632,2.632,0,0,1-1.057-.593,2.485,2.485,0,0,1-.645-1.032,4.864,4.864,0,0,1-.22-1.587V.31L115.053,0V16.773a3.522,3.522,0,0,0,.115.994,1.348,1.348,0,0,0,.35.593,1.376,1.376,0,0,0,.606.322,7.34,7.34,0,0,0,.889.18Z" transform="translate(37.041 0)" fill="#fff" fill-rule="evenodd"/>
    <path id="Fill-59" d="M135.916,10.638A10.445,10.445,0,0,0,135.45,7.4a7.12,7.12,0,0,0-1.316-2.438,5.644,5.644,0,0,0-2.051-1.536,7.149,7.149,0,0,0-5.393,0,5.645,5.645,0,0,0-2.051,1.536A7.12,7.12,0,0,0,123.323,7.4a10.446,10.446,0,0,0-.464,3.239,10.452,10.452,0,0,0,.464,3.239,7.12,7.12,0,0,0,1.316,2.438,5.767,5.767,0,0,0,2.051,1.548,6.987,6.987,0,0,0,5.393,0,5.767,5.767,0,0,0,2.051-1.548,7.12,7.12,0,0,0,1.316-2.438,10.451,10.451,0,0,0,.466-3.239m1.857,0a11.368,11.368,0,0,1-.67,4.052,8.442,8.442,0,0,1-1.82,2.928,7.53,7.53,0,0,1-2.671,1.767,9.055,9.055,0,0,1-6.453,0,7.5,7.5,0,0,1-2.668-1.767,8.4,8.4,0,0,1-1.82-2.928,11.308,11.308,0,0,1-.67-4.052,11.2,11.2,0,0,1,.67-4.039,8.434,8.434,0,0,1,1.82-2.916,7.5,7.5,0,0,1,2.668-1.767,9.074,9.074,0,0,1,6.453,0,7.53,7.53,0,0,1,2.671,1.767A8.475,8.475,0,0,1,137.1,6.6a11.257,11.257,0,0,1,.67,4.039" transform="translate(39.533 0.433)" fill="#fff" fill-rule="evenodd"/>
    <path id="Fill-60" d="M139.246,20.257a5.63,5.63,0,0,1-1.483-.22,2.636,2.636,0,0,1-1.059-.593,2.511,2.511,0,0,1-.645-1.032,4.868,4.868,0,0,1-.219-1.587V.31L137.516,0V16.773a3.469,3.469,0,0,0,.117.994,1.36,1.36,0,0,0,.349.593,1.376,1.376,0,0,0,.606.322,7.362,7.362,0,0,0,.89.18Z" transform="translate(44.381 0)" fill="#fff" fill-rule="evenodd"/>
    <path id="Fill-61" d="M144.337,18.663q-.844-1.578-1.631-3.281T141.23,11.94q-.689-1.741-1.256-3.483T139,5.037h1.779q.283,1.24.722,2.672t.992,2.955q.555,1.522,1.223,3.123t1.463,3.147q.573-1.594,1.016-3.013t.824-2.823q.378-1.4.728-2.875t.72-3.185h1.678q-.842,3.745-1.889,7.284a60.847,60.847,0,0,1-2.289,6.47,14.785,14.785,0,0,1-1.008,2,5.873,5.873,0,0,1-1.153,1.382,4.1,4.1,0,0,1-1.478.8,6.776,6.776,0,0,1-1.982.259,4.194,4.194,0,0,1-1.178-.155,3.752,3.752,0,0,1-.661-.232l.336-1.393a2.411,2.411,0,0,0,.581.219,3.508,3.508,0,0,0,1,.142,5.076,5.076,0,0,0,1.305-.155,2.791,2.791,0,0,0,1.047-.529,3.855,3.855,0,0,0,.841-.967,8.677,8.677,0,0,0,.724-1.5" transform="translate(45.251 1.646)" fill="#fff" fill-rule="evenodd"/>
    <path id="Fill-62" d="M148.715,5.565c.5-.138,1.148-.292,1.949-.464a15.345,15.345,0,0,1,3.11-.257,4.338,4.338,0,0,1,3.663,1.47c.086-.069.255-.184.5-.349A7.3,7.3,0,0,1,161.9,4.844a5.739,5.739,0,0,1,2.465.451,3.437,3.437,0,0,1,1.458,1.264,5.118,5.118,0,0,1,.7,1.948,15.782,15.782,0,0,1,.18,2.477v7.459h-1.677V11.526a19.3,19.3,0,0,0-.117-2.285,4.413,4.413,0,0,0-.464-1.6,2.267,2.267,0,0,0-.994-.955,3.761,3.761,0,0,0-1.677-.322,6.46,6.46,0,0,0-1.406.142,5.878,5.878,0,0,0-1.1.349,4.726,4.726,0,0,0-.76.413c-.2.138-.341.24-.426.309a7.805,7.805,0,0,1,.348,1.51,12.771,12.771,0,0,1,.115,1.767v7.587h-1.677V11.526a19.618,19.618,0,0,0-.115-2.285,4.233,4.233,0,0,0-.478-1.6,2.322,2.322,0,0,0-1.018-.955,4,4,0,0,0-1.743-.322,13.742,13.742,0,0,0-2.051.129,5.466,5.466,0,0,0-1.071.232V18.443h-1.678Z" transform="translate(48.587 1.583)" fill="#fff" fill-rule="evenodd"/>
    <path id="Fill-63" d="M166.517,16.042a5.826,5.826,0,0,0,.58.387,5.378,5.378,0,0,0,.815.386,6.434,6.434,0,0,0,1.006.3,5.427,5.427,0,0,0,1.134.115,4.556,4.556,0,0,0,2.078-.426,3.653,3.653,0,0,0,1.356-1.161,4.924,4.924,0,0,0,.747-1.729,9.2,9.2,0,0,0,.232-2.1,5.689,5.689,0,0,0-1.316-4.039,4.54,4.54,0,0,0-3.483-1.406,13.892,13.892,0,0,0-2,.115,7.449,7.449,0,0,0-1.148.245Zm0,7.174H164.84V5.566a15.025,15.025,0,0,1,1.909-.491,15.382,15.382,0,0,1,2.943-.232,7.157,7.157,0,0,1,2.669.478,5.765,5.765,0,0,1,2.064,1.38,6.3,6.3,0,0,1,1.343,2.194,8.356,8.356,0,0,1,.476,2.916,9.329,9.329,0,0,1-.4,2.8,6.237,6.237,0,0,1-1.174,2.193,5.372,5.372,0,0,1-1.9,1.432,6.074,6.074,0,0,1-2.569.516,6.313,6.313,0,0,1-2.282-.374,5.96,5.96,0,0,1-1.408-.708Z" transform="translate(53.855 1.583)" fill="#fff" fill-rule="evenodd"/>
    <path id="Fill-64" d="M175.62,19.688H177.3V6.347H175.62Zm2.064-17.367a1.246,1.246,0,0,1-.362.942,1.276,1.276,0,0,1-1.754,0,1.245,1.245,0,0,1-.361-.942,1.245,1.245,0,0,1,.361-.942,1.276,1.276,0,0,1,1.754,0,1.246,1.246,0,0,1,.362.942Z" transform="translate(57.242 0.337)" fill="#fff" fill-rule="evenodd"/>
    <path id="Fill-65" d="M185.185,18.739a7.128,7.128,0,0,1-2.736-.491,5.141,5.141,0,0,1-1.974-1.406,6.28,6.28,0,0,1-1.2-2.193,9.168,9.168,0,0,1-.413-2.825,9.114,9.114,0,0,1,.426-2.866,6.459,6.459,0,0,1,1.225-2.218,5.438,5.438,0,0,1,1.936-1.433A6.261,6.261,0,0,1,185,4.8a10.735,10.735,0,0,1,2.026.18,5.137,5.137,0,0,1,1.457.464L188.05,6.9a5.427,5.427,0,0,0-1.161-.414,7.78,7.78,0,0,0-1.73-.154,4.058,4.058,0,0,0-3.367,1.432,6.354,6.354,0,0,0-1.148,4.065A8.7,8.7,0,0,0,180.9,14a4.419,4.419,0,0,0,.838,1.7,3.93,3.93,0,0,0,1.5,1.109,5.56,5.56,0,0,0,2.231.4,5.814,5.814,0,0,0,1.819-.245,7.529,7.529,0,0,0,1.072-.426l.361,1.445a6.277,6.277,0,0,1-1.459.5,8.649,8.649,0,0,1-2.076.245" transform="translate(58.437 1.57)" fill="#fff" fill-rule="evenodd"/>
    <path id="Fill-66" d="M190.779,17.268a5.266,5.266,0,0,0,2.388-.478,1.666,1.666,0,0,0,.942-1.613,2.331,2.331,0,0,0-.168-.929,1.817,1.817,0,0,0-.555-.7,4.817,4.817,0,0,0-1.019-.594q-.633-.283-1.561-.67-.748-.31-1.42-.632a5.866,5.866,0,0,1-1.186-.748,3.251,3.251,0,0,1-.825-1.02,3.068,3.068,0,0,1-.312-1.445,3.247,3.247,0,0,1,1.226-2.632A5.157,5.157,0,0,1,191.657,4.8a9.105,9.105,0,0,1,2.257.234,7.077,7.077,0,0,1,1.252.413l-.386,1.5a10.257,10.257,0,0,0-1.045-.413,6.862,6.862,0,0,0-2.155-.259,4.763,4.763,0,0,0-1.071.117,2.84,2.84,0,0,0-.892.362,1.946,1.946,0,0,0-.62.62,1.721,1.721,0,0,0-.232.918,1.955,1.955,0,0,0,.207.931,2.062,2.062,0,0,0,.606.686,5.118,5.118,0,0,0,.98.553c.387.172.83.36,1.329.565q.776.308,1.483.63a5.382,5.382,0,0,1,1.251.772,3.6,3.6,0,0,1,.88,1.084,3.371,3.371,0,0,1,.334,1.587,3.1,3.1,0,0,1-1.356,2.736,6.458,6.458,0,0,1-3.7.929,9.293,9.293,0,0,1-2.683-.3,10.307,10.307,0,0,1-1.239-.451l.439-1.522a3.34,3.34,0,0,0,.334.167,7.2,7.2,0,0,0,.7.257,7.324,7.324,0,0,0,1.045.245,8.461,8.461,0,0,0,1.406.1" transform="translate(61.049 1.57)" fill="#fff" fill-rule="evenodd"/>
    <path id="Fill-67" d="M128.187,44h.194a1.074,1.074,0,0,0,.433-.072.284.284,0,0,0,.161-.289.278.278,0,0,0-.151-.271.814.814,0,0,0-.379-.078h-.121a.762.762,0,0,0-.135.015Zm.918,1.378c-.093-.191-.184-.365-.279-.523a3.368,3.368,0,0,0-.264-.391h-.375v.914H127.6V42.89a2.72,2.72,0,0,1,.425-.076c.139-.013.261-.02.369-.02a1.5,1.5,0,0,1,.873.211.735.735,0,0,1,.3.641.721.721,0,0,1-.114.407.747.747,0,0,1-.33.269c.092.131.192.284.3.456a5.02,5.02,0,0,1,.312.6Zm1.239-1.263a2.178,2.178,0,0,0-.133-.78,1.772,1.772,0,0,0-.371-.6,1.686,1.686,0,0,0-.568-.389,1.985,1.985,0,0,0-1.447,0,1.644,1.644,0,0,0-.564.389,1.81,1.81,0,0,0-.37.6,2.208,2.208,0,0,0-.131.78,2.254,2.254,0,0,0,.131.785,1.8,1.8,0,0,0,.37.606,1.608,1.608,0,0,0,.564.389,1.985,1.985,0,0,0,1.447,0,1.649,1.649,0,0,0,.568-.389,1.765,1.765,0,0,0,.371-.606,2.223,2.223,0,0,0,.133-.785Zm.606,0a2.659,2.659,0,0,1-.2,1.044,2.327,2.327,0,0,1-.525.775,2.3,2.3,0,0,1-.765.484,2.536,2.536,0,0,1-.917.167,2.507,2.507,0,0,1-.907-.167,2.27,2.27,0,0,1-.766-.484,2.4,2.4,0,0,1-.531-.775,2.846,2.846,0,0,1,0-2.084,2.384,2.384,0,0,1,.531-.777,2.27,2.27,0,0,1,.766-.484,2.507,2.507,0,0,1,.907-.167,2.536,2.536,0,0,1,.917.167,2.252,2.252,0,0,1,1.291,1.262,2.671,2.671,0,0,1,.2,1.04Z" transform="translate(41.214 13.607)" fill="#fff" fill-rule="evenodd"/>
  </g>
</svg>
