<svg xmlns="http://www.w3.org/2000/svg" width="119.658" height="39.998" viewBox="0 0 119.658 39.998">
  <g id="Download_on_the_App_Store_Badge_US-UK_RGB_blk_092917" transform="translate(0 0)">
    <g id="Group_11291" data-name="Group 11291" transform="translate(0 0)">
      <g id="Group_11289" data-name="Group 11289">
        <path id="Path_21144" data-name="Path 21144" d="M110.129,0H9.534C9.168,0,8.805,0,8.44,0c-.306,0-.61.008-.919.013a13.214,13.214,0,0,0-2,.177,6.665,6.665,0,0,0-1.9.627A6.437,6.437,0,0,0,2,2,6.258,6.258,0,0,0,.819,3.618a6.6,6.6,0,0,0-.625,1.9,12.992,12.992,0,0,0-.179,2C.006,7.83,0,8.137,0,8.444V31.557c0,.31.006.611.015.922a12.992,12.992,0,0,0,.179,2,6.587,6.587,0,0,0,.625,1.9A6.208,6.208,0,0,0,2,38a6.274,6.274,0,0,0,1.619,1.179,6.7,6.7,0,0,0,1.9.631,13.454,13.454,0,0,0,2,.177c.309.007.613.011.919.011.366,0,.728,0,1.095,0h100.6c.359,0,.725,0,1.084,0,.3,0,.617,0,.922-.011a13.278,13.278,0,0,0,2-.177,6.8,6.8,0,0,0,1.908-.631A6.277,6.277,0,0,0,117.66,38a6.394,6.394,0,0,0,1.182-1.614,6.6,6.6,0,0,0,.619-1.9,13.5,13.5,0,0,0,.186-2c0-.311,0-.611,0-.922.008-.363.008-.725.008-1.094V9.536c0-.366,0-.729-.008-1.092,0-.307,0-.614,0-.921a13.5,13.5,0,0,0-.186-2,6.617,6.617,0,0,0-.619-1.9,6.466,6.466,0,0,0-2.8-2.8,6.767,6.767,0,0,0-1.908-.627,13.043,13.043,0,0,0-2-.177c-.3,0-.617-.011-.922-.013-.359,0-.725,0-1.084,0Z" transform="translate(0 0)" fill="#a6a6a6"/>
        <path id="Path_21145" data-name="Path 21145" d="M8.444,39.113c-.3,0-.6,0-.9-.011a12.688,12.688,0,0,1-1.869-.163,5.883,5.883,0,0,1-1.657-.548,5.4,5.4,0,0,1-1.4-1.016,5.319,5.319,0,0,1-1.02-1.4,5.719,5.719,0,0,1-.543-1.657,12.408,12.408,0,0,1-.166-1.874c-.006-.211-.015-.913-.015-.913V8.442s.009-.691.015-.894a12.364,12.364,0,0,1,.166-1.872A5.753,5.753,0,0,1,1.6,4.015a5.372,5.372,0,0,1,1.015-1.4,5.565,5.565,0,0,1,1.4-1.022,5.823,5.823,0,0,1,1.653-.544A12.586,12.586,0,0,1,7.542.887l.9-.012H111.2l.913.013a12.385,12.385,0,0,1,1.858.163,5.938,5.938,0,0,1,1.671.548,5.593,5.593,0,0,1,2.415,2.419,5.761,5.761,0,0,1,.535,1.648,12.993,12.993,0,0,1,.174,1.887c0,.283,0,.587,0,.89.008.375.008.732.008,1.091V30.456c0,.363,0,.718-.008,1.075,0,.325,0,.623,0,.929a12.727,12.727,0,0,1-.171,1.853,5.736,5.736,0,0,1-.54,1.669,5.478,5.478,0,0,1-1.015,1.385,5.412,5.412,0,0,1-1.4,1.022,5.861,5.861,0,0,1-1.668.55,12.542,12.542,0,0,1-1.869.163c-.293.007-.6.011-.9.011l-1.084,0Z" transform="translate(0.005 0.005)"/>
      </g>
      <g id="_Group_" data-name="&lt;Group&gt;" transform="translate(10.027 8.641)">
        <g id="_Group_2" data-name="&lt;Group&gt;">
          <g id="_Group_3" data-name="&lt;Group&gt;">
            <path id="_Path_" data-name="&lt;Path&gt;" d="M24.851,20.336a4.976,4.976,0,0,1,2.37-4.175,5.094,5.094,0,0,0-4.013-2.17C21.518,13.814,19.882,15,19.021,15c-.877,0-2.2-.993-3.628-.963a5.345,5.345,0,0,0-4.5,2.743C8.95,20.148,10.4,25.1,12.264,27.818c.932,1.333,2.021,2.821,3.447,2.769,1.395-.058,1.916-.889,3.6-.889,1.668,0,2.157.889,3.611.856,1.5-.024,2.44-1.339,3.339-2.684a11.023,11.023,0,0,0,1.527-3.11A4.808,4.808,0,0,1,24.851,20.336Z" transform="translate(-9.972 -8.691)" fill="#fff"/>
            <path id="_Path_2" data-name="&lt;Path&gt;" d="M22.055,12.23a4.9,4.9,0,0,0,1.121-3.51,4.985,4.985,0,0,0-3.225,1.669,4.662,4.662,0,0,0-1.15,3.38A4.122,4.122,0,0,0,22.055,12.23Z" transform="translate(-9.923 -8.72)" fill="#fff"/>
          </g>
        </g>
        <g id="Group_11290" data-name="Group 11290" transform="translate(23.924 9.201)">
          <path id="Path_21146" data-name="Path 21146" d="M42.346,27.19h-4.76l-1.143,3.375H34.427l4.508-12.487H41.03l4.508,12.487h-2.05Zm-4.267-1.557h3.773l-1.86-5.477H39.94Z" transform="translate(-34.427 -17.87)" fill="#fff"/>
          <path id="Path_21147" data-name="Path 21147" d="M55.207,26c0,2.829-1.514,4.647-3.8,4.647a3.086,3.086,0,0,1-2.864-1.593H48.5v4.509H46.631V21.443H48.44v1.514h.034a3.229,3.229,0,0,1,2.9-1.609C53.684,21.348,55.207,23.174,55.207,26Zm-1.921,0c0-1.843-.953-3.055-2.406-3.055-1.428,0-2.388,1.237-2.388,3.055,0,1.834.96,3.063,2.388,3.063C52.334,29.058,53.286,27.855,53.286,26Z" transform="translate(-34.36 -17.852)" fill="#fff"/>
          <path id="Path_21148" data-name="Path 21148" d="M65.172,26c0,2.829-1.514,4.647-3.8,4.647a3.086,3.086,0,0,1-2.864-1.593h-.043v4.509H56.6V21.443H58.4v1.514h.034a3.229,3.229,0,0,1,2.9-1.609C63.649,21.348,65.172,23.174,65.172,26Zm-1.921,0c0-1.843-.953-3.055-2.406-3.055-1.428,0-2.388,1.237-2.388,3.055,0,1.834.96,3.063,2.388,3.063,1.453,0,2.406-1.2,2.406-3.063Z" transform="translate(-34.305 -17.852)" fill="#fff"/>
          <path id="Path_21149" data-name="Path 21149" d="M71.721,27.087c.138,1.238,1.341,2.051,2.985,2.051,1.575,0,2.708-.813,2.708-1.93,0-.969-.683-1.55-2.3-1.947l-1.618-.39c-2.293-.554-3.357-1.626-3.357-3.366,0-2.154,1.877-3.634,4.544-3.634,2.638,0,4.447,1.48,4.508,3.634H77.3c-.113-1.246-1.143-2-2.648-2s-2.535.761-2.535,1.869c0,.883.658,1.4,2.267,1.8l1.376.338c2.562.606,3.626,1.635,3.626,3.461,0,2.336-1.861,3.8-4.82,3.8-2.769,0-4.639-1.429-4.76-3.687Z" transform="translate(-34.232 -17.871)" fill="#fff"/>
          <path id="Path_21150" data-name="Path 21150" d="M83.364,19.3v2.154h1.731v1.48H83.364v5.019c0,.78.347,1.143,1.108,1.143a5.839,5.839,0,0,0,.615-.043v1.471a5.131,5.131,0,0,1-1.038.086c-1.843,0-2.562-.692-2.562-2.458V22.934H80.163v-1.48h1.324V19.3Z" transform="translate(-34.175 -17.863)" fill="#fff"/>
          <path id="Path_21151" data-name="Path 21151" d="M86.065,26c0-2.864,1.687-4.664,4.318-4.664S94.7,23.131,94.7,26s-1.67,4.664-4.319,4.664S86.065,28.868,86.065,26ZM92.8,26c0-1.965-.9-3.125-2.415-3.125S87.969,24.039,87.969,26c0,1.973.9,3.124,2.414,3.124S92.8,27.968,92.8,26Z" transform="translate(-34.142 -17.852)" fill="#fff"/>
          <path id="Path_21152" data-name="Path 21152" d="M96.186,21.443h1.782v1.55h.043a2.171,2.171,0,0,1,2.19-1.645,2.882,2.882,0,0,1,.64.07v1.748a2.612,2.612,0,0,0-.84-.113,1.883,1.883,0,0,0-1.947,2.095v5.4H96.186Z" transform="translate(-34.086 -17.852)" fill="#fff"/>
          <path id="Path_21153" data-name="Path 21153" d="M109.429,27.873c-.251,1.653-1.861,2.787-3.92,2.787-2.648,0-4.292-1.774-4.292-4.621s1.653-4.708,4.214-4.708c2.519,0,4.1,1.73,4.1,4.49v.64H103.1v.113a2.371,2.371,0,0,0,2.449,2.579,2.06,2.06,0,0,0,2.1-1.28Zm-6.317-2.717h4.551a2.189,2.189,0,0,0-2.233-2.311,2.3,2.3,0,0,0-2.318,2.311Z" transform="translate(-34.058 -17.852)" fill="#fff"/>
        </g>
      </g>
    </g>
    <g id="_Group_4" data-name="&lt;Group&gt;" transform="translate(35.201 8.428)">
      <g id="Group_11292" data-name="Group 11292">
        <path id="Path_21154" data-name="Path 21154" d="M37.838,8.731a2.654,2.654,0,0,1,2.823,2.981c0,1.917-1.036,3.019-2.823,3.019H35.671v-6ZM36.6,13.882h1.131a1.886,1.886,0,0,0,1.979-2.158,1.891,1.891,0,0,0-1.979-2.146H36.6Z" transform="translate(-35.671 -8.435)" fill="#fff"/>
        <path id="Path_21155" data-name="Path 21155" d="M41.681,12.457a2.145,2.145,0,1,1,4.271,0,2.145,2.145,0,1,1-4.271,0Zm3.351,0c0-.981-.441-1.555-1.215-1.555s-1.214.574-1.214,1.555.437,1.559,1.214,1.559,1.215-.573,1.215-1.559Z" transform="translate(-35.638 -8.428)" fill="#fff"/>
        <path id="Path_21156" data-name="Path 21156" d="M51.6,14.723h-.927l-.936-3.335h-.071l-.932,3.335h-.918l-1.248-4.528h.906l.811,3.455h.067l.931-3.455h.857l.931,3.455h.071l.807-3.455h.894Z" transform="translate(-35.611 -8.427)" fill="#fff"/>
        <path id="Path_21157" data-name="Path 21157" d="M53.854,10.2h.86v.719h.067a1.355,1.355,0,0,1,1.351-.807A1.473,1.473,0,0,1,57.7,11.792v2.931h-.894V12.016c0-.728-.316-1.089-.977-1.089a1.039,1.039,0,0,0-1.081,1.147v2.649h-.894Z" transform="translate(-35.57 -8.428)" fill="#fff"/>
        <path id="Path_21158" data-name="Path 21158" d="M59.094,8.437h.894v6.3h-.894Z" transform="translate(-35.542 -8.437)" fill="#fff"/>
        <path id="Path_21159" data-name="Path 21159" d="M61.218,12.457a2.145,2.145,0,1,1,4.271,0,2.146,2.146,0,1,1-4.271,0Zm3.351,0c0-.981-.441-1.555-1.215-1.555s-1.214.574-1.214,1.555.437,1.559,1.214,1.559,1.215-.573,1.215-1.559Z" transform="translate(-35.53 -8.428)" fill="#fff"/>
        <path id="Path_21160" data-name="Path 21160" d="M66.4,13.443c0-.815.607-1.285,1.684-1.352l1.226-.071v-.391c0-.478-.316-.748-.927-.748-.5,0-.844.183-.944.5h-.865c.091-.778.823-1.277,1.85-1.277,1.135,0,1.775.565,1.775,1.522v3.094h-.86v-.636H69.27a1.523,1.523,0,0,1-1.36.711A1.368,1.368,0,0,1,66.4,13.443Zm2.911-.387v-.379l-1.106.071c-.624.042-.906.254-.906.653s.354.645.84.645a1.067,1.067,0,0,0,1.172-.99Z" transform="translate(-35.501 -8.428)" fill="#fff"/>
        <path id="Path_21161" data-name="Path 21161" d="M71.348,12.466c0-1.431.735-2.337,1.879-2.337a1.492,1.492,0,0,1,1.388.794h.067V8.437h.894v6.3H74.72v-.715H74.65a1.571,1.571,0,0,1-1.422.79C72.076,14.807,71.348,13.9,71.348,12.466Zm.923,0c0,.96.453,1.538,1.21,1.538S74.7,13.419,74.7,12.47s-.47-1.538-1.219-1.538-1.21.582-1.21,1.534Z" transform="translate(-35.474 -8.437)" fill="#fff"/>
        <path id="Path_21162" data-name="Path 21162" d="M79.23,12.457a2.145,2.145,0,1,1,4.271,0,2.145,2.145,0,1,1-4.271,0Zm3.351,0c0-.981-.441-1.555-1.215-1.555s-1.214.574-1.214,1.555.437,1.559,1.214,1.559S82.581,13.443,82.581,12.457Z" transform="translate(-35.43 -8.428)" fill="#fff"/>
        <path id="Path_21163" data-name="Path 21163" d="M84.669,10.2h.86v.719H85.6a1.355,1.355,0,0,1,1.351-.807,1.473,1.473,0,0,1,1.567,1.684v2.931h-.894V12.016c0-.728-.316-1.089-.977-1.089a1.039,1.039,0,0,0-1.081,1.147v2.649h-.894Z" transform="translate(-35.4 -8.428)" fill="#fff"/>
        <path id="Path_21164" data-name="Path 21164" d="M93.524,9.074v1.148h.981v.753h-.981V13.3c0,.474.2.682.64.682a2.982,2.982,0,0,0,.341-.021v.744a2.931,2.931,0,0,1-.486.046c-.994,0-1.389-.35-1.389-1.223V10.974h-.719v-.753h.719V9.074Z" transform="translate(-35.36 -8.433)" fill="#fff"/>
        <path id="Path_21165" data-name="Path 21165" d="M95.7,8.437h.886v2.5h.071a1.393,1.393,0,0,1,1.381-.811A1.492,1.492,0,0,1,99.6,11.809v2.923h-.894v-2.7c0-.723-.337-1.089-.968-1.089a1.058,1.058,0,0,0-1.14,1.148v2.644H95.7Z" transform="translate(-35.339 -8.437)" fill="#fff"/>
        <path id="Path_21166" data-name="Path 21166" d="M104.784,13.5a1.838,1.838,0,0,1-1.962,1.31,2.057,2.057,0,0,1-2.092-2.337,2.088,2.088,0,0,1,2.088-2.366c1.26,0,2.02.861,2.02,2.283V12.7h-3.2v.05a1.2,1.2,0,0,0,1.206,1.3,1.085,1.085,0,0,0,1.077-.549Zm-3.143-1.459h2.287a1.092,1.092,0,0,0-1.115-1.173,1.158,1.158,0,0,0-1.172,1.173Z" transform="translate(-35.312 -8.428)" fill="#fff"/>
      </g>
    </g>
  </g>
</svg>
