<svg xmlns="http://www.w3.org/2000/svg" width="15" height="13.125" viewBox="0 0 15 13.125">
  <g id="archive_icon" transform="translate(0 -2.25)">
    <path id="Path_13340" data-name="Path 13340" d="M3.188,11.25v7.082a1.35,1.35,0,0,0,1.273,1.416H13.17a1.35,1.35,0,0,0,1.273-1.416V11.25h.938v7.082a2.29,2.29,0,0,1-2.211,2.361H4.461A2.29,2.29,0,0,1,2.25,18.332V11.25Z" transform="translate(-1.316 -5.318)" fill="#e61e25" fill-rule="evenodd"/>
    <path id="Path_13341" data-name="Path 13341" d="M5.156,8.324a.468.468,0,0,1,.469-.467h3.75a.467.467,0,1,1,0,.934H5.625A.468.468,0,0,1,5.156,8.324Zm8.906-5.14H.937V5.053H14.062ZM.937,2.25A.936.936,0,0,0,0,3.184V5.053a.936.936,0,0,0,.937.934H14.062A.936.936,0,0,0,15,5.053V3.184a.936.936,0,0,0-.937-.934Z" fill="#e61e25" fill-rule="evenodd"/>
  </g>
</svg>
