<svg xmlns="http://www.w3.org/2000/svg" width="18" height="9" viewBox="0 0 18 9">
  <path id="attendees_icon" d="M.563-711a.544.544,0,0,1-.4-.162.544.544,0,0,1-.162-.4v-.431a1.336,1.336,0,0,1,.773-1.186,4.064,4.064,0,0,1,2.039-.446q.225,0,.441.014t.422.042a3.143,3.143,0,0,0-.225.654,3.269,3.269,0,0,0-.075.715v1.2Zm4.5,0a.544.544,0,0,1-.4-.162.544.544,0,0,1-.162-.4v-.638a2.26,2.26,0,0,1,1.247-1.978A6.189,6.189,0,0,1,9-714.937a6.179,6.179,0,0,1,3.263.759A2.261,2.261,0,0,1,13.5-712.2v.638a.544.544,0,0,1-.162.4.544.544,0,0,1-.4.162Zm9.563,0v-1.2a3.269,3.269,0,0,0-.075-.715,3.256,3.256,0,0,0-.225-.659,3.765,3.765,0,0,1,.422-.042q.216-.009.442-.009a4.066,4.066,0,0,1,2.033.446A1.335,1.335,0,0,1,18-711.994v.431a.544.544,0,0,1-.162.4.544.544,0,0,1-.4.162ZM9-713.812a5.548,5.548,0,0,0-2.447.459q-.928.459-.928,1.153v.075h6.75v-.094q0-.675-.928-1.134A5.548,5.548,0,0,0,9-713.812Zm-6.189-.375a1.26,1.26,0,0,1-.926-.386A1.268,1.268,0,0,1,1.5-715.5a1.26,1.26,0,0,1,.386-.926,1.268,1.268,0,0,1,.928-.384,1.26,1.26,0,0,1,.926.386,1.268,1.268,0,0,1,.384.928,1.26,1.26,0,0,1-.386.926,1.268,1.268,0,0,1-.928.384Zm12.375,0a1.26,1.26,0,0,1-.926-.386,1.268,1.268,0,0,1-.384-.928,1.26,1.26,0,0,1,.386-.926,1.268,1.268,0,0,1,.928-.384,1.26,1.26,0,0,1,.926.386,1.268,1.268,0,0,1,.384.928,1.26,1.26,0,0,1-.386.926A1.268,1.268,0,0,1,15.186-714.187ZM9-715.5a2.17,2.17,0,0,1-1.594-.656,2.17,2.17,0,0,1-.656-1.594,2.17,2.17,0,0,1,.656-1.594A2.17,2.17,0,0,1,9-720a2.17,2.17,0,0,1,1.594.656,2.17,2.17,0,0,1,.656,1.594,2.17,2.17,0,0,1-.656,1.594A2.17,2.17,0,0,1,9-715.5Zm0-3.375a1.088,1.088,0,0,0-.8.323,1.088,1.088,0,0,0-.323.8,1.089,1.089,0,0,0,.323.8,1.088,1.088,0,0,0,.8.323,1.088,1.088,0,0,0,.8-.323,1.089,1.089,0,0,0,.323-.8,1.088,1.088,0,0,0-.323-.8A1.088,1.088,0,0,0,9-718.875ZM9-712.125ZM9-717.75Z" transform="translate(0 720)"/>
</svg>
