<svg xmlns="http://www.w3.org/2000/svg" width="17.5" height="19.5" viewBox="0 0 17.5 19.5">
  <path id="calendar" d="M8,4H7.2a4.971,4.971,0,0,0-2.108.218,2,2,0,0,0-.874.874A4.971,4.971,0,0,0,4,7.2V8M8,4h8M8,4V2m8,2h.8a4.964,4.964,0,0,1,2.107.218,2,2,0,0,1,.875.874A4.962,4.962,0,0,1,20,7.2V8M16,4V2M4,8v8.8a4.967,4.967,0,0,0,.218,2.108,2,2,0,0,0,.874.874A4.962,4.962,0,0,0,7.2,20H16.8a4.957,4.957,0,0,0,2.1-.218,2,2,0,0,0,.875-.874A4.957,4.957,0,0,0,20,16.8V8M4,8H20m-4,8h0v0h0Zm-4,0h0v0h0ZM8,16H8v0H8Zm8-4v0h0v0Zm-4,0h0v0h0ZM8,12H8v0H8Z" transform="translate(-3.25 -1.25)" fill="none" stroke="#969696" stroke-linecap="round" stroke-linejoin="round" stroke-width="1.5"/>
</svg>
