<svg xmlns="http://www.w3.org/2000/svg" width="18" height="20" viewBox="0 0 18 20">
  <path id="date_icon" d="M124.65-867.85a.968.968,0,0,1-.713-.288.967.967,0,0,1-.287-.712.968.968,0,0,1,.287-.713.968.968,0,0,1,.713-.287.968.968,0,0,1,.713.287.968.968,0,0,1,.287.713.967.967,0,0,1-.287.712A.968.968,0,0,1,124.65-867.85Zm4.425,0a.968.968,0,0,1-.712-.288.968.968,0,0,1-.288-.712.968.968,0,0,1,.288-.713.968.968,0,0,1,.712-.287.968.968,0,0,1,.713.287.968.968,0,0,1,.287.713.967.967,0,0,1-.287.712A.968.968,0,0,1,129.075-867.85Zm4.25,0a.968.968,0,0,1-.712-.288.968.968,0,0,1-.288-.712.968.968,0,0,1,.288-.713.968.968,0,0,1,.712-.287.968.968,0,0,1,.713.287.968.968,0,0,1,.287.713.967.967,0,0,1-.287.712A.968.968,0,0,1,133.325-867.85ZM121.5-860a1.439,1.439,0,0,1-1.05-.45,1.439,1.439,0,0,1-.45-1.05V-877a1.439,1.439,0,0,1,.45-1.05,1.439,1.439,0,0,1,1.05-.45h1.625v-.7a.774.774,0,0,1,.23-.57.774.774,0,0,1,.57-.23.811.811,0,0,1,.588.23.762.762,0,0,1,.237.57v.7h8.5v-.7a.774.774,0,0,1,.23-.57.774.774,0,0,1,.57-.23.811.811,0,0,1,.588.23.762.762,0,0,1,.237.57v.7H136.5a1.439,1.439,0,0,1,1.05.45A1.439,1.439,0,0,1,138-877v15.5a1.439,1.439,0,0,1-.45,1.05,1.439,1.439,0,0,1-1.05.45Zm0-1.5h15v-10.75h-15Zm0-12.25h15V-877h-15Zm0,0v0Z" transform="translate(-120 880)"/>
</svg>
