<svg xmlns="http://www.w3.org/2000/svg" width="16" height="18" viewBox="0 0 16 18">
  <path id="delete" d="M162.525-822a1.439,1.439,0,0,1-1.05-.45,1.439,1.439,0,0,1-.45-1.05v-14.25h-.275a.724.724,0,0,1-.534-.217A.732.732,0,0,1,160-838.5a.718.718,0,0,1,.216-.533.732.732,0,0,1,.534-.212h3.95a.723.723,0,0,1,.216-.538.731.731,0,0,1,.534-.212h5.1a.726.726,0,0,1,.534.216.726.726,0,0,1,.216.534h3.95a.724.724,0,0,1,.534.217.732.732,0,0,1,.216.538.718.718,0,0,1-.216.533.731.731,0,0,1-.534.213h-.275v14.25a1.439,1.439,0,0,1-.45,1.05,1.439,1.439,0,0,1-1.05.45Zm0-15.75v14.25h10.95v-14.25Zm2.65,11.35a.723.723,0,0,0,.217.534.732.732,0,0,0,.537.216.717.717,0,0,0,.533-.216.731.731,0,0,0,.212-.534v-8.475a.723.723,0,0,0-.217-.534.732.732,0,0,0-.537-.216.717.717,0,0,0-.533.216.731.731,0,0,0-.212.534Zm4.15,0a.723.723,0,0,0,.217.534.732.732,0,0,0,.538.216.717.717,0,0,0,.533-.216.731.731,0,0,0,.212-.534v-8.475a.723.723,0,0,0-.217-.534.732.732,0,0,0-.538-.216.717.717,0,0,0-.533.216.731.731,0,0,0-.213.534Zm-6.8-11.35v0Z" transform="translate(-160 840)" fill="#e61e25"/>
</svg>
