<svg xmlns="http://www.w3.org/2000/svg" width="34" height="34" viewBox="0 0 34 34">
  <g id="delete_icon" transform="translate(-986 -307)">
    <circle id="Ellipse_1032" data-name="Ellipse 1032" cx="17" cy="17" r="17" transform="translate(986 307)" fill="#fff" opacity="0.198"/>
    <path id="delete_FILL0_wght400_GRAD0_opsz48-2" d="M162.209-824.25a1.259,1.259,0,0,1-.919-.394,1.259,1.259,0,0,1-.394-.919v-12.469h-.241a.633.633,0,0,1-.468-.19.641.641,0,0,1-.189-.47.628.628,0,0,1,.189-.466.64.64,0,0,1,.468-.186h3.456a.633.633,0,0,1,.189-.47.64.64,0,0,1,.468-.186h4.463a.635.635,0,0,1,.468.189.635.635,0,0,1,.189.468h3.456a.633.633,0,0,1,.468.19.641.641,0,0,1,.189.47.628.628,0,0,1-.189.466.64.64,0,0,1-.468.186H173.1v12.469a1.259,1.259,0,0,1-.394.919,1.259,1.259,0,0,1-.919.394Zm0-13.781v12.469h9.581v-12.469Zm2.319,9.931a.633.633,0,0,0,.19.467.64.64,0,0,0,.47.189.628.628,0,0,0,.467-.189.639.639,0,0,0,.186-.467v-7.416a.633.633,0,0,0-.19-.468.64.64,0,0,0-.47-.189.628.628,0,0,0-.466.189.64.64,0,0,0-.186.468Zm3.631,0a.633.633,0,0,0,.19.467.641.641,0,0,0,.47.189.628.628,0,0,0,.466-.189.639.639,0,0,0,.186-.467v-7.416a.633.633,0,0,0-.19-.468.64.64,0,0,0-.47-.189.628.628,0,0,0-.466.189.64.64,0,0,0-.186.468Zm-5.95-9.931v0Z" transform="translate(836 1156)" fill="#fff"/>
  </g>
</svg>
