<svg xmlns="http://www.w3.org/2000/svg" width="34" height="34" viewBox="0 0 34 34">
  <g id="edit_icon" transform="translate(-941 -307)">
    <circle id="Ellipse_1031" data-name="Ellipse 1031" cx="17" cy="17" r="17" transform="translate(941 307)" fill="#fff" opacity="0.198"/>
    <path id="border_color_FILL0_wght400_GRAD0_opsz48" d="M81.125-858.635a1.093,1.093,0,0,1-.795-.325,1.056,1.056,0,0,1-.33-.781,1.025,1.025,0,0,1,.336-.774,1.134,1.134,0,0,1,.808-.318H93.875a1.1,1.1,0,0,1,.795.321,1.038,1.038,0,0,1,.33.772,1.048,1.048,0,0,1-.336.778,1.117,1.117,0,0,1-.808.327Zm.975-4.123a.554.554,0,0,1-.4-.157.519.519,0,0,1-.162-.388v-1.653a.528.528,0,0,1,.037-.2.54.54,0,0,1,.131-.185l6.825-6.611,2.494,2.415L84.2-862.921a.562.562,0,0,1-.192.127.579.579,0,0,1-.2.036Zm.562-1.09h.844l5.906-5.721-.844-.817-5.906,5.721Zm9.188-6.484-2.494-2.416,1.575-1.526a.643.643,0,0,1,.469-.245.728.728,0,0,1,.525.245l1.462,1.417a.694.694,0,0,1,.244.5.75.75,0,0,1-.206.5ZM82.662-863.847Z" transform="translate(871 1190.518)" fill="#fff"/>
  </g>
</svg>
