<svg xmlns="http://www.w3.org/2000/svg" width="17" height="17.001" viewBox="0 0 17 17.001">
  <g id="Group_2635" data-name="Group 2635" transform="translate(-4047.25 -1266.25)">
    <path id="Path_4" data-name="Path 4" d="M14.461,18.936H3.726a2.312,2.312,0,0,1-2.309-2.309V5.892A2.309,2.309,0,0,1,3.726,3.583H9.093a.775.775,0,0,1,0,1.551H3.726a.758.758,0,0,0-.758.758V16.628a.759.759,0,0,0,.758.758H14.461a.759.759,0,0,0,.758-.758V11.26a.775.775,0,1,1,1.551,0v5.368A2.312,2.312,0,0,1,14.461,18.936Z" transform="translate(4045.833 1264.315)" fill="#29856c"/>
    <path id="Path_5" data-name="Path 5" d="M17.99,1.285a2.4,2.4,0,0,1,1.7,4.094L12.3,12.76a.75.75,0,0,1-.348.2l-3.108.777a.75.75,0,0,1-.91-.91l.777-3.108a.75.75,0,0,1,.2-.348l7.381-7.381A2.382,2.382,0,0,1,17.99,1.285Zm-6.6,10.268,7.234-7.234a.9.9,0,1,0-1.27-1.27l-7.234,7.234L9.7,11.976Z" transform="translate(4043.863 1264.965)" fill="#29856c"/>
  </g>
</svg>
