<svg xmlns="http://www.w3.org/2000/svg" width="17" height="18" viewBox="0 0 17 18">
  <path id="edit" d="M81.275-856.517a1.239,1.239,0,0,1-.9-.368A1.2,1.2,0,0,1,80-857.77a1.162,1.162,0,0,1,.381-.877,1.285,1.285,0,0,1,.915-.36H95.725a1.246,1.246,0,0,1,.9.364,1.176,1.176,0,0,1,.375.875,1.188,1.188,0,0,1-.381.881,1.266,1.266,0,0,1-.915.37Zm1.105-4.672a.627.627,0,0,1-.454-.178.588.588,0,0,1-.183-.44v-1.873a.6.6,0,0,1,.042-.222.612.612,0,0,1,.149-.21l7.735-7.492,2.826,2.738-7.735,7.492a.635.635,0,0,1-.217.144.654.654,0,0,1-.229.041Zm.637-1.235h.956l6.694-6.484-.956-.926-6.694,6.484Zm10.413-7.348L90.6-872.51l1.785-1.729a.728.728,0,0,1,.531-.278.824.824,0,0,1,.6.278l1.657,1.605a.786.786,0,0,1,.276.566.85.85,0,0,1-.234.566ZM83.017-862.424Z" transform="translate(-80 874.518)" fill="#29856c"/>
</svg>
