<svg xmlns="http://www.w3.org/2000/svg" width="19.5" height="21.5" viewBox="0 0 19.5 21.5">
  <path id="Vector" d="M8.5,4.222H7.6a5.658,5.658,0,0,0-2.372.242,2.235,2.235,0,0,0-.983.971A5.46,5.46,0,0,0,4,7.778v.889M8.5,4.222h9m-9,0V2m9,2.222h.9a5.65,5.65,0,0,1,2.371.242,2.238,2.238,0,0,1,.984.971A5.449,5.449,0,0,1,22,7.774v.892M17.5,4.222V2M4,8.667v9.778a5.455,5.455,0,0,0,.245,2.342,2.236,2.236,0,0,0,.983.971A5.647,5.647,0,0,0,7.6,22H18.4a5.642,5.642,0,0,0,2.367-.242,2.239,2.239,0,0,0,.984-.971A5.445,5.445,0,0,0,22,18.448V8.667m-18,0H22m-4.5,8.889h0v0h0Zm-4.5,0h0v0h0Zm-4.5,0h0v0h0Zm9-4.444v0h0v0Zm-4.5,0h0v0h0Zm-4.5,0h0v0h0Z" transform="translate(-3.25 -1.25)" fill="none" stroke="#fff" stroke-linecap="round" stroke-linejoin="round" stroke-width="1.5"/>
</svg>
