<svg xmlns="http://www.w3.org/2000/svg" width="19.15" height="20.15" viewBox="0 0 19.15 20.15">
  <g id="menu_broadcast_message" transform="translate(6783.15 -22175)">
    <g id="icons_Q2" data-name="icons Q2" transform="translate(-6772 22175)">
      <ellipse id="Ellipse_1000" data-name="Ellipse 1000" cx="0.878" cy="0.911" rx="0.878" ry="0.911" transform="translate(3.121 2.112)" fill="#fff"/>
      <path id="Ellipse_1000_-_Outline" data-name="Ellipse 1000 - Outline" d="M.867-.15A1.037,1.037,0,0,1,1.883.9,1.037,1.037,0,0,1,.867,1.96,1.037,1.037,0,0,1-.15.9,1.037,1.037,0,0,1,.867-.15Zm0,1.822A.754.754,0,0,0,1.606.9.754.754,0,0,0,.867.138.754.754,0,0,0,.127.9.754.754,0,0,0,.867,1.672Z" transform="translate(3.132 2.118)" fill="#fff"/>
      <path id="Path_28933" data-name="Path 28933" d="M11.306,16.538a.394.394,0,0,1-.034.479.359.359,0,0,1-.458.068,2.672,2.672,0,0,1,0-3.826.359.359,0,0,1,.458.068.394.394,0,0,1,.034.479,1.868,1.868,0,0,0,0,2.733Z" transform="translate(-8.466 -12.149)" fill="#fff"/>
      <path id="Path_28933_-_Outline" data-name="Path 28933 - Outline" d="M10.991,17.276a.494.494,0,0,1-.259-.074l-.013-.008-.011-.01a2.82,2.82,0,0,1,0-4.037l.011-.01.013-.008a.493.493,0,0,1,.259-.074.5.5,0,0,1,.371.167.545.545,0,0,1,.046.659l-.01.014-.013.012a1.72,1.72,0,0,0,0,2.517l.013.012.01.014a.545.545,0,0,1-.046.659A.5.5,0,0,1,10.991,17.276Zm-.106-.315a.229.229,0,0,0,.274-.049.247.247,0,0,0,.029-.286,2.016,2.016,0,0,1,0-2.922.247.247,0,0,0-.029-.286.229.229,0,0,0-.274-.049,2.525,2.525,0,0,0,0,3.592Z" transform="translate(-8.454 -12.143)" fill="#fff"/>
      <path id="Path_28934" data-name="Path 28934" d="M31.053,14.673a2.633,2.633,0,0,1-.808,1.913.359.359,0,0,1-.458-.068.394.394,0,0,1-.034-.479,1.868,1.868,0,0,0,0-2.733.388.388,0,0,1-.176-.388.377.377,0,0,1,.282-.314.362.362,0,0,1,.385.155,2.633,2.633,0,0,1,.808,1.913Z" transform="translate(-24.596 -11.65)" fill="#fff"/>
      <path id="Path_28934_-_Outline" data-name="Path 28934 - Outline" d="M30.045,16.777a.5.5,0,0,1-.371-.167.545.545,0,0,1-.046-.659l.01-.014.013-.012a1.72,1.72,0,0,0,.009-2.509.532.532,0,0,1-.23-.527.517.517,0,0,1,.388-.432.491.491,0,0,1,.113-.013.5.5,0,0,1,.408.213,2.817,2.817,0,0,1-.011,4.028l-.011.01L30.3,16.7A.494.494,0,0,1,30.045,16.777Zm-.2-.65a.247.247,0,0,0,.029.286.229.229,0,0,0,.274.049,2.522,2.522,0,0,0-.012-3.6l-.011-.011-.009-.013a.228.228,0,0,0-.24-.1.234.234,0,0,0-.176.2.241.241,0,0,0,.11.242l.011.007.01.009a2.015,2.015,0,0,1,.014,2.935Z" transform="translate(-24.585 -11.644)" fill="#fff"/>
      <path id="Path_28935" data-name="Path 28935" d="M37.921,11.078a3.915,3.915,0,0,1-1.159,2.806.342.342,0,0,1-.459-.034.375.375,0,0,1-.033-.476,3.253,3.253,0,0,0,0-4.591.375.375,0,0,1,.033-.476.342.342,0,0,1,.459-.034A3.915,3.915,0,0,1,37.921,11.078Z" transform="translate(-30.059 -8.056)" fill="#fff"/>
      <path id="Path_28935_-_Outline" data-name="Path 28935 - Outline" d="M36.54,14.095a.478.478,0,0,1-.346-.149.525.525,0,0,1-.046-.664l.015-.018a3.105,3.105,0,0,0,0-4.383l-.015-.018a.525.525,0,0,1,.045-.664.477.477,0,0,1,.64-.047l.012.011a4.124,4.124,0,0,1,0,5.82l-.012.011A.475.475,0,0,1,36.54,14.095Zm-.176-.632a.228.228,0,0,0,.026.28.211.211,0,0,0,.272.025,3.829,3.829,0,0,0,0-5.39.211.211,0,0,0-.272.025.228.228,0,0,0-.026.28,3.4,3.4,0,0,1,0,4.781Z" transform="translate(-30.048 -8.05)" fill="#fff"/>
      <path id="Path_28936" data-name="Path 28936" d="M3.663,13.374a.375.375,0,0,1-.033.476.342.342,0,0,1-.459.034,3.982,3.982,0,0,1,0-5.611.342.342,0,0,1,.459.034.375.375,0,0,1,.033.476,3.253,3.253,0,0,0,0,4.591Z" transform="translate(-1.876 -8.056)" fill="#fff"/>
      <path id="Path_28936_-_Outline" data-name="Path 28936 - Outline" d="M3.37,14.095a.475.475,0,0,1-.294-.1l-.013-.011a4.13,4.13,0,0,1,0-5.819l.013-.011a.477.477,0,0,1,.64.047.525.525,0,0,1,.046.664l-.015.018a3.105,3.105,0,0,0,0,4.383l.015.018a.525.525,0,0,1-.046.664A.478.478,0,0,1,3.37,14.095Zm-.121-.327a.211.211,0,0,0,.272-.025.228.228,0,0,0,.026-.28,3.4,3.4,0,0,1,0-4.781.228.228,0,0,0-.026-.28.211.211,0,0,0-.272-.025,3.835,3.835,0,0,0,0,5.39Z" transform="translate(-1.865 -8.05)" fill="#fff"/>
    </g>
    <path id="Path_28937" data-name="Path 28937" d="M10.28,19.444a1.9,1.9,0,0,1-1.512-.81l-1.26-1.688v0a.4.4,0,0,0-.171-.083H6.92a6.283,6.283,0,0,1-4.195-1.106c-1.006-.885-1.475-2.343-1.475-4.59V6.946c0-3.726,1.961-5.7,5.67-5.7h3.36a.633.633,0,0,1,0,1.266H6.92c-3.009,0-4.41,1.408-4.41,4.43v4.219c0,1.855.332,3.011,1.045,3.638.632.556,1.639.793,3.365.793h.42a1.567,1.567,0,0,1,1.178.594l1.258,1.685a.57.57,0,0,0,1.008,0l1.26-1.688A1.483,1.483,0,0,1,13.22,15.6h.42c3.009,0,4.41-1.408,4.41-4.43V6.946a.63.63,0,1,1,1.26,0v4.219c0,3.726-1.961,5.7-5.67,5.7h-.42a.222.222,0,0,0-.17.088l-1.258,1.685A1.9,1.9,0,0,1,10.28,19.444Z" transform="translate(-6784.25 22175.557)" fill="#fff" stroke="#fff" stroke-linecap="round" stroke-width="0.3"/>
    <path id="Path_28939" data-name="Path 28939" d="M15.844,11.688h-.007a.844.844,0,0,1,0-1.688h.007a.844.844,0,0,1,0,1.688Z" transform="translate(-6786.449 22174.191)" fill="#fff"/>
    <path id="Path_28940" data-name="Path 28940" d="M11.843,11.688h-.008a.844.844,0,0,1,0-1.688h.008a.844.844,0,0,1,0,1.688Z" transform="translate(-6785.809 22174.191)" fill="#fff"/>
    <path id="Path_28941" data-name="Path 28941" d="M7.842,11.688H7.835a.844.844,0,0,1,0-1.688h.008a.844.844,0,0,1,0,1.688Z" transform="translate(-6785.169 22174.191)" fill="#fff"/>
  </g>
</svg>
