<svg xmlns="http://www.w3.org/2000/svg" width="20" height="20" viewBox="0 0 20 20">
  <g id="gallery_icon" transform="translate(-0.94 -0.2)">
    <path id="Subtraction_129" data-name="Subtraction 129" d="M14.132,16.675a2.545,2.545,0,0,0,2.542-2.542V2.268A2.545,2.545,0,0,0,14.132-.275H2.268A2.545,2.545,0,0,0-.275,2.268V14.132a2.545,2.545,0,0,0,2.542,2.542H14.132m-8.9-5.263a1.456,1.456,0,0,1,.446.07l1.3.429a.244.244,0,0,0,.077.013.25.25,0,0,0,.213-.121L8.785,9.278A1.453,1.453,0,0,1,10,8.569h.023a1.478,1.478,0,0,1,1.224.648l2.676,4.007c.184.278.6,1.314.373,1.543a.474.474,0,0,1-.441.307H3.021a.472.472,0,0,1-.471-.471.4.4,0,0,1,.006-.076.6.6,0,0,1,.1-.419L4,12.087a1.452,1.452,0,0,1,1.23-.676m7.941-6.5a1.5,1.5,0,0,1,.006,3h-.006a1.5,1.5,0,1,1,0-3M14.132,18.2H2.268A4.072,4.072,0,0,1-1.8,14.132V2.268A4.072,4.072,0,0,1,2.268-1.8H14.132A4.072,4.072,0,0,1,18.2,2.268V14.132A4.072,4.072,0,0,1,14.132,18.2Z" transform="translate(2.74 2)" fill="#fff"/>
  </g>
</svg>
