<svg xmlns="http://www.w3.org/2000/svg" width="30" height="30" viewBox="0 0 30 30">
  <g id="icon_report-content" transform="translate(-212 -58)">
    <circle id="Ellipse_563" data-name="Ellipse 563" cx="15" cy="15" r="15" transform="translate(212 58)" fill="#ffedee"/>
    <g id="file-richtext" transform="translate(216.125 63.25)">
      <path id="Path_21295" data-name="Path 21295" d="M6.625,2.25h8.5A2.134,2.134,0,0,1,17.25,4.393V15.107a2.134,2.134,0,0,1-2.125,2.143h-8.5A2.134,2.134,0,0,1,4.5,15.107V4.393A2.134,2.134,0,0,1,6.625,2.25Zm0,1.071A1.067,1.067,0,0,0,5.562,4.393V15.107a1.067,1.067,0,0,0,1.063,1.071h8.5a1.067,1.067,0,0,0,1.062-1.071V4.393a1.067,1.067,0,0,0-1.062-1.071Z" fill="#e68616"/>
      <path id="Path_21296" data-name="Path 21296" d="M10.125,16.446a.533.533,0,0,1,.531-.536h3.188a.536.536,0,0,1,0,1.071H10.656A.533.533,0,0,1,10.125,16.446Zm0-2.143a.533.533,0,0,1,.531-.536h6.375a.536.536,0,0,1,0,1.071H10.656A.533.533,0,0,1,10.125,14.3Zm1.742-3.973,1.413.95,1.97-1.988a.264.264,0,0,1,.307-.05l2.006,1.044V12.16a.533.533,0,0,1-.531.536H10.656a.533.533,0,0,1-.531-.536v-.536A13.124,13.124,0,0,1,11.867,10.33Zm.118-.849a.8.8,0,0,0,.706-.4.81.81,0,0,0,0-.815.8.8,0,1,0-.706,1.211Z" transform="translate(-2.969 -2.946)" fill="#e68616"/>
    </g>
    <path id="warning-standard-solid" d="M10.648,9.926,6.59,2.458a.941.941,0,0,0-1.654,0L.881,9.926a.941.941,0,0,0,.827,1.4H9.821a.941.941,0,0,0,.827-1.388ZM5.389,4.313a.409.409,0,1,1,.818,0V7.82a.409.409,0,0,1-.818,0Zm.409,5.8a.526.526,0,1,1,.526-.526.526.526,0,0,1-.526.526Z" transform="translate(228.238 61.034)" fill="#dd4040"/>
  </g>
</svg>
