<svg xmlns="http://www.w3.org/2000/svg" width="30" height="30" viewBox="0 0 30 30">
  <g id="icon_user-abuse" transform="translate(4738 924)">
    <circle id="Ellipse_490" data-name="Ellipse 490" cx="15" cy="15" r="15" transform="translate(-4738 -924)" fill="#fff4ed"/>
    <path id="Subtraction_49" data-name="Subtraction 49" d="M10,20a9.839,9.839,0,0,1-5.02-1.34,9.965,9.965,0,0,1-3.64-3.64A9.839,9.839,0,0,1,0,10,9.839,9.839,0,0,1,1.34,4.98,9.97,9.97,0,0,1,4.98,1.34,9.839,9.839,0,0,1,10,0a9.839,9.839,0,0,1,5.02,1.34,9.965,9.965,0,0,1,3.64,3.64A9.839,9.839,0,0,1,20,10a9.839,9.839,0,0,1-1.34,5.02,9.96,9.96,0,0,1-3.64,3.64A9.839,9.839,0,0,1,10,20ZM3.82,5.48A7.44,7.44,0,0,0,2.34,10a7.4,7.4,0,0,0,2.25,5.41A7.408,7.408,0,0,0,10,17.66a7.44,7.44,0,0,0,4.52-1.48L13.129,14.79a2.3,2.3,0,0,1,.387-.039,1.235,1.235,0,0,0,1.234-1.234c0-.149-.007-.3-.021-.448L16.18,14.52A7.44,7.44,0,0,0,17.66,10a7.408,7.408,0,0,0-2.25-5.41A7.4,7.4,0,0,0,10,2.34,7.44,7.44,0,0,0,5.48,3.82L7.837,6.176a2.976,2.976,0,0,0-.829,2.065,3.044,3.044,0,0,0,.035.463L3.82,5.48Z" transform="translate(-4733 -919)" fill="#dd4040"/>
    <path id="Path_14042" data-name="Path 14042" d="M7.033,7.517a3.033,3.033,0,0,0-6.066,0,.483.483,0,0,1-.967,0A4.007,4.007,0,0,1,2.427,3.838a2.242,2.242,0,1,1,3.145,0A4.006,4.006,0,0,1,8,7.517a.483.483,0,0,1-.967,0ZM2.725,2.242A1.275,1.275,0,1,0,4,.967,1.276,1.276,0,0,0,2.725,2.242Z" transform="translate(-4727 -913)"/>
  </g>
</svg>
