<svg xmlns="http://www.w3.org/2000/svg" width="30" height="30" viewBox="0 0 30 30">
  <g id="Gallery_Post_Report_Abuse_icon" transform="translate(-60 -284)">
    <circle id="Ellipse_1078" data-name="Ellipse 1078" cx="15" cy="15" r="15" transform="translate(60 284)" fill="#eaf0e2"/>
    <g id="Gallery-non-active_icon" transform="translate(67.06 291.8)">
      <path id="Subtraction_129" data-name="Subtraction 129" d="M9.353,11.132a1.782,1.782,0,0,0,1.779-1.779V1.047A1.782,1.782,0,0,0,9.353-.732H1.047A1.782,1.782,0,0,0-.732,1.047V9.353a1.782,1.782,0,0,0,1.779,1.779H9.353M3.123,7.448a1.019,1.019,0,0,1,.312.049l.907.3a.171.171,0,0,0,.054.009.175.175,0,0,0,.149-.085L5.61,5.954a1.017,1.017,0,0,1,.847-.5h.016a1.034,1.034,0,0,1,.857.454L9.2,8.717c.129.195.421.92.261,1.08a.332.332,0,0,1-.309.215H1.575a.33.33,0,0,1-.329-.33.283.283,0,0,1,0-.053.423.423,0,0,1,.067-.294l.945-1.415a1.016,1.016,0,0,1,.861-.473M8.682,2.9a1.051,1.051,0,0,1,0,2.1h0a1.051,1.051,0,1,1,0-2.1m.671,9.3H1.047A2.851,2.851,0,0,1-1.8,9.353V1.047A2.851,2.851,0,0,1,1.047-1.8H9.353A2.851,2.851,0,0,1,12.2,1.047V9.353A2.851,2.851,0,0,1,9.353,12.2Z" transform="translate(2.74 2)" fill="#395860"/>
    </g>
    <path id="warning-standard-solid" d="M8.671,8.334,5.424,2.36a.753.753,0,0,0-1.323,0L.857,8.334a.753.753,0,0,0,.661,1.12H8.009a.753.753,0,0,0,.661-1.11ZM4.463,3.844a.327.327,0,1,1,.654,0v2.8a.327.327,0,0,1-.654,0Zm.327,4.64a.421.421,0,1,1,.421-.421.421.421,0,0,1-.421.421Z" transform="translate(78.238 287.034)" fill="#dd4040"/>
  </g>
</svg>
