<svg xmlns="http://www.w3.org/2000/svg" width="30" height="30" viewBox="0 0 30 30">
  <g id="reward_closing_notification" transform="translate(15639 -14110)">
    <g id="icon_misuse" transform="translate(-10901 15034)">
      <circle id="Ellipse_490" data-name="Ellipse 490" cx="15" cy="15" r="15" transform="translate(-4738 -924)" fill="#ebe3fd"/>
    </g>
    <g id="Group_13240" data-name="Group 13240" transform="translate(1.233 2)">
      <g id="cup-reward-svgrepo-com" transform="translate(-15636 14112)">
        <path id="Path_14222" data-name="Path 14222" d="M21.994,10.751c-.343,0-1.294,1.54-1.294,1.188s.065-.834.408-.834c.854,0,1.191-.365,1.784-.979s1.586-1.2,1.586-2.059v-.8H21.994a.637.637,0,0,1,0-1.273H25.1a.629.629,0,0,1,.621.636V8.068c0,1.2-2.282,1.21-3.1,2.059S23.182,10.751,21.994,10.751Z" transform="translate(-9.021 -0.939)" fill="#6433d1"/>
        <path id="Path_14223" data-name="Path 14223" d="M6.4,12.576a4.314,4.314,0,0,1-3.126-1.329A4.545,4.545,0,0,1,2,8.068V6.636A.629.629,0,0,1,2.621,6H5.727a.637.637,0,0,1,0,1.273H3.242v.8a3.264,3.264,0,0,0,.914,2.283A3.1,3.1,0,0,0,6.4,11.3a.637.637,0,0,1,0,1.273Z" transform="translate(0 -0.939)" fill="#6433d1"/>
        <path id="Path_14224" data-name="Path 14224" d="M15.832,26.924H9.621A.629.629,0,0,1,9,26.288V24.7A1.679,1.679,0,0,1,10.656,23H14.8a1.679,1.679,0,0,1,1.656,1.7v1.591A.629.629,0,0,1,15.832,26.924Zm-5.59-1.273h4.969V24.7a.425.425,0,0,0-.414-.424H10.656a.425.425,0,0,0-.414.424Z" transform="translate(-3.377 -8.924)" fill="#6433d1"/>
        <path id="Path_14225" data-name="Path 14225" d="M13.28,15.348a.629.629,0,0,1-.621-.636v-2.28a.635.635,0,0,1,.437-.608,3.061,3.061,0,0,0,2.151-2.945V5.273h-6V8.879a3.061,3.061,0,0,0,2.151,2.945.635.635,0,0,1,.437.608v2.28a.621.621,0,1,1-1.242,0V12.875A4.345,4.345,0,0,1,8,8.879V4.636A.629.629,0,0,1,8.621,4h7.246a.629.629,0,0,1,.621.636V8.879c-.323,1.674-1.023,3.307-2.588,4v1.838A.629.629,0,0,1,13.28,15.348Z" transform="translate(-2.894)" fill="#6433d1"/>
      </g>
      <g id="stopwatch-svgrepo-com" transform="translate(-15662.535 14118)">
        <g id="Group_13237" data-name="Group 13237" transform="translate(37.535)">
          <g id="Group_13236" data-name="Group 13236">
            <g id="Path_29104" data-name="Path 29104" transform="translate(-37.535)" fill="#dd4040">
              <path d="M 41.80189514160156 10.5 C 39.17341613769531 10.5 37.03499603271484 8.361579895019531 37.03499603271484 5.733109951019287 C 37.03499603271484 4.549739837646484 37.4732551574707 3.414239883422852 38.26903533935547 2.535759925842285 C 38.90652084350586 1.832020998001099 39.73012542724609 1.339342832565308 40.63559341430664 1.110796809196472 C 40.47118377685547 0.9396518468856812 40.36996459960938 0.7073158621788025 40.36996459960938 0.4518199861049652 C 40.36996459960938 -0.07301999628543854 40.79694366455078 -0.5 41.32177352905273 -0.5 L 42.2819938659668 -0.5 C 42.80683517456055 -0.5 43.23381423950195 -0.07301999628543854 43.23381423950195 0.4517999887466431 C 43.23381423950195 0.7072638273239136 43.13267135620117 0.939520001411438 42.96829986572266 1.110658764839172 C 43.15090560913086 1.156747102737427 43.33051300048828 1.2137291431427 43.50662612915039 1.281462073326111 L 43.57741546630859 1.170220017433167 C 43.75306701660156 0.8941400051116943 44.05343627929688 0.7293099761009216 44.38087463378906 0.7293099761009216 C 44.56187438964844 0.7293099761009216 44.73842620849609 0.7807899713516235 44.89145660400391 0.8781999945640564 C 45.33415603637695 1.159929990768433 45.46515655517578 1.749369978904724 45.18343353271484 2.192140102386475 L 45.11156845092773 2.305068969726562 C 46.04270553588867 3.201972246170044 46.56879425048828 4.428246021270752 46.56879425048828 5.733109951019287 C 46.56879425048828 8.361579895019531 44.43037414550781 10.5 41.80189514160156 10.5 Z M 41.80189514160156 2.869820117950439 C 40.22307586669922 2.869820117950439 38.93861389160156 4.154280185699463 38.93861389160156 5.733099937438965 C 38.93861389160156 7.311920166015625 40.22307586669922 8.596389770507812 41.80189514160156 8.596389770507812 C 43.38071441650391 8.596389770507812 44.66517639160156 7.311920166015625 44.66517639160156 5.733099937438965 C 44.66517639160156 4.154280185699463 43.38071441650391 2.869820117950439 41.80189514160156 2.869820117950439 Z" stroke="none"/>
              <path d="M 41.32177352905273 0 C 41.072265625 0 40.86996459960938 0.2022800445556641 40.86996459960938 0.4518203735351562 C 40.86996459960938 0.701350212097168 41.07224655151367 0.903630256652832 41.32177352905273 0.903630256652832 L 41.35009384155273 0.903630256652832 L 41.35009384155273 1.490139961242676 C 39.20890426635742 1.716500282287598 37.53499603271484 3.53292989730835 37.53499603271484 5.733109951019287 C 37.53499603271484 8.085880279541016 39.44911575317383 10 41.80189514160156 10 C 44.1546745300293 10 46.06879425048828 8.085880279541016 46.06879425048828 5.733109951019287 C 46.06879425048828 4.384510040283203 45.43976593017578 3.180270195007324 44.45990371704102 2.39778995513916 L 44.7615852355957 1.92372989654541 C 44.89552688598633 1.71321964263916 44.83347702026367 1.4339599609375 44.62297439575195 1.300000190734863 C 44.41247940063477 1.166016578674316 44.13320541381836 1.22811222076416 43.99924468994141 1.438650131225586 L 43.69828414916992 1.911600112915039 C 43.25476455688477 1.690589904785156 42.76777648925781 1.544449806213379 42.25371551513672 1.490119934082031 L 42.25371551513672 0.9036102294921875 L 42.2819938659668 0.9036102294921875 C 42.5315055847168 0.9036102294921875 42.73381423950195 0.7013301849365234 42.73381423950195 0.4518003463745117 C 42.73381423950195 0.2022695541381836 42.5315055847168 0 42.2819938659668 0 L 41.32177352905273 0 M 41.80189514160156 9.096389770507812 C 39.94738388061523 9.096389770507812 38.43861389160156 7.587619781494141 38.43861389160156 5.733099937438965 C 38.43861389160156 3.878590106964111 39.94738388061523 2.369820117950439 41.80189514160156 2.369820117950439 C 43.65640640258789 2.369820117950439 45.16517639160156 3.878590106964111 45.16517639160156 5.733099937438965 C 45.16517639160156 7.587619781494141 43.65640640258789 9.096389770507812 41.80189514160156 9.096389770507812 M 41.32177352905273 -1 L 42.2819938659668 -1 C 43.058837890625 -1 43.69512557983398 -0.3866977691650391 43.73211669921875 0.3811330795288086 C 43.92993545532227 0.2825851440429688 44.15103530883789 0.2293100357055664 44.38084411621094 0.2293100357055664 C 44.65715408325195 0.2293100357055664 44.92656326293945 0.3078403472900391 45.15996551513672 0.4564104080200195 C 45.75864410400391 0.837407112121582 45.98357009887695 1.587469100952148 45.72733688354492 2.223353385925293 C 46.58812713623047 3.182339191436768 47.06879425048828 4.421738147735596 47.06879425048828 5.733109951019287 C 47.06879425048828 8.637279510498047 44.70607376098633 11 41.80189514160156 11 C 38.8977165222168 11 36.53499603271484 8.637279510498047 36.53499603271484 5.733109951019287 C 36.53499603271484 4.425419807434082 37.01921463012695 3.170700073242188 37.89847564697266 2.200079917907715 C 38.45967483520508 1.580560684204102 39.15168380737305 1.109062194824219 39.91603851318359 0.8153314590454102 C 39.88597106933594 0.6991243362426758 39.86996459960938 0.5772933959960938 39.86996459960938 0.4518203735351562 C 39.86996459960938 -0.348719596862793 40.52124404907227 -1 41.32177352905273 -1 Z M 41.80189514160156 8.096389770507812 C 43.10501480102539 8.096389770507812 44.16517639160156 7.036220073699951 44.16517639160156 5.733099937438965 C 44.16517639160156 4.429979801177979 43.10501480102539 3.369820117950439 41.80189514160156 3.369820117950439 C 40.49877548217773 3.369820117950439 39.43861389160156 4.429979801177979 39.43861389160156 5.733099937438965 C 39.43861389160156 7.036220073699951 40.49877548217773 8.096389770507812 41.80189514160156 8.096389770507812 Z" stroke="none" fill="#ebe3fd"/>
            </g>
          </g>
        </g>
        <g id="Group_13239" data-name="Group 13239" transform="translate(41.35 3.894)">
          <g id="Group_13238" data-name="Group 13238">
            <g id="Path_29105" data-name="Path 29105" transform="translate(-232.868 -199.382)" fill="#dd4040">
              <path d="M 233.3194580078125 202.17236328125 C 233.0894470214844 202.1723480224609 232.8672943115234 202.0890350341797 232.6939086914062 201.937744140625 C 232.5023345947266 201.7705993652344 232.3873291015625 201.5388641357422 232.3700714111328 201.2852020263672 C 232.3527984619141 201.0315704345703 232.4353332519531 200.786376953125 232.6024780273438 200.5948028564453 L 233.8126983642578 199.2077178955078 C 233.9934387207031 199.0005035400391 234.2549285888672 198.8816375732422 234.5300598144531 198.8816375732422 C 234.7601013183594 198.8816375732422 234.9822692871094 198.9649810791016 235.1556701660156 199.1162872314453 C 235.3472137451172 199.2834320068359 235.4622192382812 199.5151672363281 235.4794769287109 199.768798828125 C 235.4967651367188 200.0224609375 235.4141998291016 200.2676696777344 235.2470397949219 200.459228515625 L 234.0368499755859 201.8462982177734 C 233.8560638427734 202.0535278320312 233.5945892333984 202.17236328125 233.3194580078125 202.17236328125 Z" stroke="none"/>
              <path d="M 234.5300598144531 199.3816528320312 C 234.4040832519531 199.3816375732422 234.2787780761719 199.4340209960938 234.189453125 199.5364227294922 L 232.9792327880859 200.9235229492188 C 232.815185546875 201.1115417480469 232.8346099853516 201.3969573974609 233.0226287841797 201.5609893798828 C 233.2105865478516 201.7250518798828 233.4960632324219 201.7055969238281 233.6600799560547 201.5175933837891 L 234.8703155517578 200.1304779052734 C 235.0343780517578 199.9424743652344 235.0149230957031 199.6570739746094 234.8269195556641 199.4930267333984 C 234.7413177490234 199.4183197021484 234.6354522705078 199.3816528320312 234.5300598144531 199.3816528320312 M 234.5300598144531 198.3816375732422 L 234.5301513671875 198.3816375732422 C 234.8810729980469 198.3816680908203 235.2199859619141 198.5087890625 235.4844360351562 198.7395782470703 C 235.7765808105469 198.9945068359375 235.9519805908203 199.3479614257812 235.9783325195312 199.7348327636719 C 236.0046691894531 200.1217651367188 235.8787536621094 200.4957733154297 235.6237640380859 200.7879791259766 L 234.4136047363281 202.1750183105469 C 234.1378479003906 202.4910888671875 233.7390594482422 202.67236328125 233.3194580078125 202.67236328125 C 232.9685974121094 202.67236328125 232.6296997070312 202.5452728271484 232.3651885986328 202.3145141601562 C 232.0729827880859 202.0595550537109 231.8975524902344 201.7060699462891 231.8712158203125 201.3191680908203 C 231.8448791503906 200.9322662353516 231.9707794189453 200.5582885742188 232.2257385253906 200.2660827636719 L 233.4359283447266 198.8789978027344 C 233.7116546630859 198.5629425048828 234.1104583740234 198.3816375732422 234.5300598144531 198.3816375732422 Z" stroke="none" fill="#ebe3fd"/>
            </g>
          </g>
        </g>
      </g>
    </g>
  </g>
</svg>
