<svg xmlns="http://www.w3.org/2000/svg" width="30" height="30" viewBox="0 0 30 30">
  <g id="Group_12704" data-name="Group 12704" transform="translate(-48 -214)">
    <circle id="Ellipse_563" data-name="Ellipse 563" cx="15" cy="15" r="15" transform="translate(48 214)" fill="#ffedee"/>
    <g id="Group_12703" data-name="Group 12703">
      <path id="Subtraction_116" data-name="Subtraction 116" d="M16391.969-14036a.97.97,0,0,1-.969-.968,8,8,0,0,1,4.857-7.355,4.46,4.46,0,0,1-1.344-3.2A4.488,4.488,0,0,1,16399-14052a4.49,4.49,0,0,1,4.486,4.481,4.473,4.473,0,0,1-1.338,3.2,7.949,7.949,0,0,1,1.309.714,5.482,5.482,0,0,0-1.809,1.184,6.022,6.022,0,0,0-2.648-.608,6.073,6.073,0,0,0-6.066,6.066A.967.967,0,0,1,16391.969-14036Zm7.029-14.069a2.551,2.551,0,0,0-2.549,2.55,2.551,2.551,0,0,0,2.549,2.55,2.553,2.553,0,0,0,2.551-2.55A2.553,2.553,0,0,0,16399-14050.068Z" transform="translate(-16338 14272)" fill="#e68616"/>
      <path id="block" d="M9.981,5.027a4.889,4.889,0,0,1-.669,2.505A4.955,4.955,0,0,1,7.5,9.349a4.889,4.889,0,0,1-2.505.669,4.889,4.889,0,0,1-2.505-.669A4.955,4.955,0,0,1,.669,7.532,4.889,4.889,0,0,1,0,5.027,4.889,4.889,0,0,1,.669,2.521,4.955,4.955,0,0,1,2.485.7,4.889,4.889,0,0,1,4.991.036,4.889,4.889,0,0,1,7.5.7,4.955,4.955,0,0,1,9.313,2.521a4.889,4.889,0,0,1,.669,2.505Zm-1.168,0a3.681,3.681,0,0,0-1.123-2.7A3.681,3.681,0,0,0,4.991,1.2a3.7,3.7,0,0,0-2.256.739l5.34,5.34a3.7,3.7,0,0,0,.739-2.256ZM7.246,8.111l-5.34-5.34a3.7,3.7,0,0,0-.739,2.256,3.681,3.681,0,0,0,1.123,2.7,3.681,3.681,0,0,0,2.7,1.123A3.7,3.7,0,0,0,7.246,8.111Z" transform="translate(73.017 229) rotate(90)" fill="#dd4040"/>
    </g>
  </g>
</svg>
