<svg xmlns="http://www.w3.org/2000/svg" width="12" height="12" viewBox="0 0 12 12">
  <g id="red_cross" transform="translate(-740 -429.016)">
    <path id="close-circle-svgrepo-com" d="M7,2a5,5,0,1,0,5,5A5.008,5.008,0,0,0,7,2Z" transform="translate(739 428.016)" fill="#710105"/>
    <path id="close-circle-svgrepo-com-2" data-name="close-circle-svgrepo-com" d="M8,2a6,6,0,1,0,6,6A6.01,6.01,0,0,0,8,2Zm2.016,7.38a.453.453,0,0,1,0,.636.449.449,0,0,1-.636,0L8,8.636l-1.38,1.38a.449.449,0,0,1-.636,0,.453.453,0,0,1,0-.636L7.364,8,5.984,6.62a.45.45,0,0,1,.636-.636L8,7.364l1.38-1.38a.45.45,0,0,1,.636.636L8.636,8Z" transform="translate(738 427.016)" fill="#ffb9bc"/>
  </g>
</svg>
