<svg xmlns="http://www.w3.org/2000/svg" width="48" height="48" viewBox="0 0 48 48">
  <g id="applause_outer_spacing_icon" transform="translate(-8464 -861)">
    <rect id="Rectangle_10628" data-name="Rectangle 10628" width="48" height="48" transform="translate(8464 861)" fill="#fff" opacity="0"/>
    <g id="Layer_2" data-name="Layer 2" transform="translate(8479.988 876.295)">
      <g id="Layer_1" data-name="Layer 1" transform="translate(0.011 -2.295)">
        <path id="Path_16971" data-name="Path 16971" d="M12.08,28.719c-.652.407-.5,1.618-.453,1.928l.455,1.714L7.788,28.314a.822.822,0,0,0-.663-.2,1.158,1.158,0,0,0-.692.363.976.976,0,0,0-.091,1.338l-.669-.63a.965.965,0,0,0-1.337.17A.963.963,0,0,0,4.244,30.7l.493.464a.964.964,0,0,0-1.337.171.948.948,0,0,0-.075,1.334L5.2,34.434a.974.974,0,0,0-1.285.2.94.94,0,0,0-.061,1.324l2.567,2.418,2.375,2.236a3.832,3.832,0,0,0,1,.663A8.888,8.888,0,0,1,12,42.6a5,5,0,0,1,.689.7l.005.007a.707.707,0,0,0,.84.146A7.579,7.579,0,0,0,16.1,41.527a6.069,6.069,0,0,0,1.673-2.73.7.7,0,0,0-.169-.679h0a3.635,3.635,0,0,1-1.063-2.52c.035-1.379-1.79-2.912-2.155-3.562l-1-2.949C13.217,28.645,12.784,28.278,12.08,28.719Z" transform="translate(-2.755 -23.955)" fill="#e5b745"/>
        <path id="Path_16972" data-name="Path 16972" d="M6.013,26.155,9.668,29.6l-.214-.821v-.022c-.093-.628-.138-1.75.592-2.205a1.206,1.206,0,0,1,.944-.214.984.984,0,0,1,.668.661l1,2.923a6.192,6.192,0,0,0,.568.709c.689.794,1.632,1.881,1.606,2.945a3.25,3.25,0,0,0,.91,2.249c.037.046.073.089.107.129a.9.9,0,0,1,.214.867,6.377,6.377,0,0,1-1.747,2.868l-.028.03A7.8,7.8,0,0,1,11.642,41.7a.916.916,0,0,1-1.081-.193l-.012-.016a4.85,4.85,0,0,0-.659-.667,8.886,8.886,0,0,0-2.164-1.3,3.987,3.987,0,0,1-1.048-.694L1.724,34.174a1.186,1.186,0,0,1,.088-1.658A1.453,1.453,0,0,1,2.49,32.1L1.2,30.885a1.194,1.194,0,0,1,.1-1.667,1.481,1.481,0,0,1,.712-.428,1.249,1.249,0,0,1,.224-1.552A1.2,1.2,0,0,1,3.9,27.023l.054.05A1.5,1.5,0,0,1,5.2,25.908,1,1,0,0,1,6.013,26.155ZM2.12,32.807a.7.7,0,0,0-.042.991l4.938,4.654a3.63,3.63,0,0,0,.964.629,9.168,9.168,0,0,1,2.243,1.347,5.225,5.225,0,0,1,.711.723l.012.016a.5.5,0,0,0,.591.09,7.249,7.249,0,0,0,2.431-1.83l.027-.029a5.808,5.808,0,0,0,1.6-2.591.5.5,0,0,0-.117-.485l-.021-.022-.107-.134a3.588,3.588,0,0,1-.995-2.519c.022-.9-.865-1.928-1.514-2.671a5.85,5.85,0,0,1-.617-.782.274.274,0,0,1-.014-.031L11.2,27.23a.632.632,0,0,0-.413-.428.751.751,0,0,0-.56.141c-.38.235-.414,1-.321,1.643l.869,3.261a.263.263,0,0,1-.045.214c-.058.084-1.4,2.113,1,4.374a.263.263,0,0,1-.354.376C9,34.573,10,32.463,10.295,31.954l-.374-1.405L5.658,26.532a.62.62,0,0,0-.5-.153.857.857,0,0,0-.515.27h0a.731.731,0,0,0-.067,1.008L8.882,31.72a.263.263,0,0,1-.354.376L3.544,27.4a.725.725,0,0,0-1.006.129A.724.724,0,0,0,2.47,28.54l4.983,4.7a.263.263,0,0,1-.354.377L2.608,29.38a.724.724,0,0,0-1.006.129.7.7,0,0,0-.048,1l1.855,1.748c.02.016.041.033.06.051l2.57,2.423a.24.24,0,0,1-.022.334h0a.238.238,0,0,1-.331.043L3.068,32.649A.732.732,0,0,0,2.12,32.807Z" transform="translate(-0.806 -21.984)" fill="#aa8023"/>
        <path id="Path_16973" data-name="Path 16973" d="M11.172,49.188c-.652.408-.5,1.618-.453,1.928l.455,1.714-4.3-4.045a.823.823,0,0,0-.663-.2,1.158,1.158,0,0,0-.692.359.977.977,0,0,0-.092,1.338l-.668-.631a.965.965,0,0,0-1.337.171.969.969,0,0,0-.092,1.349l.493.464A.964.964,0,0,0,2.49,51.8a.948.948,0,0,0-.075,1.334L4.288,54.9A.973.973,0,0,0,3,55.1a.939.939,0,0,0-.065,1.324l2.57,2.419,2.374,2.236a3.837,3.837,0,0,0,1,.663,8.888,8.888,0,0,1,2.2,1.323,5,5,0,0,1,.689.7l.005.007a.707.707,0,0,0,.84.146,7.543,7.543,0,0,0,2.564-1.933,6.079,6.079,0,0,0,1.673-2.73.7.7,0,0,0-.169-.679h0a3.634,3.634,0,0,1-1.063-2.52c.034-1.379-1.79-2.912-2.155-3.562l-1-2.94C12.309,49.115,11.876,48.748,11.172,49.188Z" transform="translate(-1.943 -42.233)" fill="#fdce4c"/>
        <path id="Path_16974" data-name="Path 16974" d="M5.122,46.6l3.656,3.452-.214-.821a.153.153,0,0,1,0-.024c-.093-.627-.139-1.749.592-2.2a1.2,1.2,0,0,1,.944-.214.986.986,0,0,1,.668.661l1,2.923a6.074,6.074,0,0,0,.568.709c.689.794,1.631,1.881,1.606,2.945a3.255,3.255,0,0,0,.911,2.249c.037.046.073.089.107.129a.9.9,0,0,1,.214.867,6.377,6.377,0,0,1-1.747,2.868l-.029.03a7.785,7.785,0,0,1-2.642,1.977.916.916,0,0,1-1.081-.193l-.024-.014a4.85,4.85,0,0,0-.659-.667,8.873,8.873,0,0,0-2.164-1.3,4.011,4.011,0,0,1-1.05-.694L.834,54.624a1.186,1.186,0,0,1,.088-1.658,1.444,1.444,0,0,1,.678-.412L.307,51.335a1.194,1.194,0,0,1,.1-1.667,1.478,1.478,0,0,1,.711-.428,1.253,1.253,0,0,1,.225-1.554,1.2,1.2,0,0,1,1.669-.211l.055.05a1.46,1.46,0,0,1,.374-.714,1.444,1.444,0,0,1,.864-.454,1,1,0,0,1,.82.248ZM9.031,51,4.769,46.982a.62.62,0,0,0-.5-.153.857.857,0,0,0-.515.269h0a.731.731,0,0,0-.067,1.008l4.313,4.063a.263.263,0,0,1-.354.376L2.653,47.85a.724.724,0,0,0-1,.129A.724.724,0,0,0,1.58,48.99l4.983,4.7a.263.263,0,0,1-.354.377L1.724,49.831a.723.723,0,0,0-1.006.129.7.7,0,0,0-.051,1l1.858,1.752c.02.016.041.033.06.051l2.57,2.423a.237.237,0,0,1-.022.333h0a.239.239,0,0,1-.331.043L2.183,53.1a.732.732,0,0,0-.948.159.709.709,0,0,0-.042.99L6.13,58.9a3.625,3.625,0,0,0,.955.632,9.167,9.167,0,0,1,2.243,1.347,5.171,5.171,0,0,1,.712.723l.012.016a.5.5,0,0,0,.591.09,7.249,7.249,0,0,0,2.431-1.83l.027-.029a5.8,5.8,0,0,0,1.6-2.591.5.5,0,0,0-.116-.485l-.021-.022-.107-.134a3.584,3.584,0,0,1-.995-2.52c.022-.9-.865-1.928-1.514-2.67a5.85,5.85,0,0,1-.617-.782.274.274,0,0,1-.014-.031l-1-2.937a.629.629,0,0,0-.412-.428.746.746,0,0,0-.565.142c-.376.235-.409,1-.315,1.645" transform="translate(-0.011 -40.242)" fill="#aa8023"/>
        <g id="Group_10333" data-name="Group 10333" transform="translate(1.497 0.894) rotate(-9)">
          <path id="Path_16975" data-name="Path 16975" d="M1.6,2.031,0,.65,1.218,0Z" transform="translate(0 0.609)" fill="#fdce4c"/>
          <path id="Path_16976" data-name="Path 16976" d="M.478,2.284,0,0,1.584.132Z" transform="translate(2.334 0)" fill="#fdce4c"/>
          <path id="Path_16977" data-name="Path 16977" d="M0,1.746,1.219,0l.852,1.117Z" transform="translate(3.644 1.097)" fill="#fdce4c"/>
        </g>
      </g>
    </g>
  </g>
</svg>
