<svg xmlns="http://www.w3.org/2000/svg" width="48" height="48" viewBox="0 0 48 48">
  <g id="love_outer_spacing_icon" transform="translate(-8790 -770)">
    <rect id="Rectangle_10626" data-name="Rectangle 10626" width="48" height="48" transform="translate(8790 770)" fill="#fff" opacity="0"/>
    <g id="Layer_2" data-name="Layer 2" transform="translate(8799.758 786.503)">
      <g id="Layer_1" data-name="Layer 1" transform="translate(0 -0.003)">
        <path id="Path_16902" data-name="Path 16902" d="M4.12,6.27,6.206,3.356,9.16,1.532a.709.709,0,0,1,.774.018l3.111,2.126V6c-.89,1.179-2.042.48-2.034-.5v-.5L10,4.3a.814.814,0,0,0-.943,0L6.787,6.276,6.609,8.12Z" transform="translate(-0.098 -0.031)" fill="#d6a834"/>
        <path id="Path_16903" data-name="Path 16903" d="M6.6,8.4a.238.238,0,0,1-.142-.05L3.972,6.507a.3.3,0,0,1-.112-.193.309.309,0,0,1,.052-.221L6,3.172A.269.269,0,0,1,6.074,3.1L9.028,1.275a.94.94,0,0,1,1.038.027l3.111,2.126a.3.3,0,0,1,.122.244V6a.312.312,0,0,1-.06.181,1.416,1.416,0,0,1-1.657.641,1.407,1.407,0,0,1-.84-1.321V5.159L9.85,4.543a.577.577,0,0,0-.655,0L7.028,6.43,6.861,8.143a.283.283,0,0,1-.142.23A.248.248,0,0,1,6.6,8.4ZM4.485,6.2l1.9,1.407L6.518,6.25a.3.3,0,0,1,.1-.194L8.879,4.08A.082.082,0,0,1,8.9,4.065a1.055,1.055,0,0,1,1.22,0l1.012.7a.293.293,0,0,1,.122.242v.5a.832.832,0,0,0,.5.782A.9.9,0,0,0,12.771,5.9V3.834L9.79,1.787a.461.461,0,0,0-.509-.013L6.373,3.57Z" transform="translate(-0.092 -0.024)" fill="#aa8023"/>
        <path id="Path_16904" data-name="Path 16904" d="M5.024,3.728l2.622-2.34L10.892.327a.709.709,0,0,1,.751.207l2.608,2.835-.472,2.268a1.088,1.088,0,0,1-1.887-.981l.1-.485-.85-.93a.822.822,0,0,0-.92-.225L8.678,3.63l-1.6,2.5a.869.869,0,0,0-.125.709l.549,2.2a2.257,2.257,0,0,0,.9,1.208s1.291.729,2.222,1.192l3.033.971a1.259,1.259,0,0,1,.414,1.621h0a1.039,1.039,0,0,1-1.439.567L8.3,13.033a3.725,3.725,0,0,0-1.775-.191,5.081,5.081,0,0,0-2.458.85C3.088,14.56-.4,8.873.383,8.07a3.657,3.657,0,0,1,.662-.513,10.734,10.734,0,0,0,2.87-2.621L3.94,4.9A5.208,5.208,0,0,1,5.024,3.728Z" transform="translate(-0.007 -0.004)" fill="#fdce4c"/>
        <path id="Path_16905" data-name="Path 16905" d="M13.074,15a1.134,1.134,0,0,1-.547-.142L8.212,13.3a3.524,3.524,0,0,0-1.668-.179,4.728,4.728,0,0,0-2.326.782c-.465.411-1.208,0-2.149-1.2C1.077,11.43-.557,8.612.19,7.847A3.906,3.906,0,0,1,.9,7.3,10.489,10.489,0,0,0,3.706,4.744l.071-.095A5.307,5.307,0,0,1,4.856,3.492L7.475,1.158a.266.266,0,0,1,.091-.052L10.812.047a.954.954,0,0,1,1.006.276l2.608,2.835a.308.308,0,0,1,.071.268l-.465,2.264a.293.293,0,0,1-.095.163,1.379,1.379,0,0,1-1.743.221,1.471,1.471,0,0,1-.554-1.492l.062-.329-.746-.819a.581.581,0,0,0-.648-.159l-1.471.587L7.287,6.289a.58.58,0,0,0-.086.465l.55,2.2a1.951,1.951,0,0,0,.78,1.038c.154.086,1.322.741,2.177,1.169l3.016.965a.173.173,0,0,1,.047.02,1.56,1.56,0,0,1,.526,2.007A1.382,1.382,0,0,1,13.074,15ZM7.013,12.514a4.008,4.008,0,0,1,1.362.242l4.331,1.559a.225.225,0,0,1,.038.017.793.793,0,0,0,1.089-.448.959.959,0,0,0-.283-1.225l-3-.957a.154.154,0,0,1-.035-.014c-.926-.461-2.221-1.192-2.234-1.2a.152.152,0,0,1-.031-.021,2.526,2.526,0,0,1-.992-1.347L6.7,6.905a1.192,1.192,0,0,1,.169-.952l1.59-2.495a.271.271,0,0,1,.125-.1l1.548-.617a1.067,1.067,0,0,1,1.192.291l.85.93a.309.309,0,0,1,.069.266l-.1.485a.869.869,0,0,0,.33.883.876.876,0,0,0,1.074-.133l.417-2.01L11.454.731A.466.466,0,0,0,10.959.59l-3.2,1.049-2.581,2.3H5.173a4.782,4.782,0,0,0-.992,1.069l-.071.095A11.009,11.009,0,0,1,1.158,7.8a3.292,3.292,0,0,0-.614.473c-.232.235.509,2.262,1.918,4.062.809,1.029,1.307,1.242,1.43,1.134a5.355,5.355,0,0,1,2.588-.9,3.93,3.93,0,0,1,.533-.047Zm-2-8.788Z" transform="translate(0 0.003)" fill="#aa8023"/>
        <path id="Path_16906" data-name="Path 16906" d="M24.841,6.27,22.755,3.35,19.8,1.532a.709.709,0,0,0-.774.018L15.909,3.676V6c.886,1.181,2.038.482,2.037-.5v-.5L18.959,4.3a.814.814,0,0,1,.943,0L22.17,6.276l.179,1.833Z" transform="translate(-0.376 -0.031)" fill="#d6a834"/>
        <path id="Path_16907" data-name="Path 16907" d="M22.346,8.4a.248.248,0,0,1-.109-.027.283.283,0,0,1-.149-.23L21.921,6.43,19.756,4.538a.567.567,0,0,0-.653,0l-.892.617V5.5a1.4,1.4,0,0,1-.84,1.321,1.413,1.413,0,0,1-1.655-.641A.3.3,0,0,1,15.655,6V3.669a.3.3,0,0,1,.123-.244L18.885,1.3a.943.943,0,0,1,1.045-.027L22.882,3.1a.269.269,0,0,1,.078.072l2.079,2.921a.309.309,0,0,1,.052.221.3.3,0,0,1-.112.193L22.491,8.35A.238.238,0,0,1,22.346,8.4ZM19.431,3.864a1.066,1.066,0,0,1,.615.2l.021.016,2.268,1.976a.3.3,0,0,1,.1.194l.133,1.361,1.9-1.4L22.576,3.57l-2.908-1.8a.459.459,0,0,0-.509.013l-2.988,2.04V5.889a.9.9,0,0,0,1.021.393.835.835,0,0,0,.5-.782V5a.293.293,0,0,1,.122-.242l1.013-.7a1.059,1.059,0,0,1,.607-.191Z" transform="translate(-0.37 -0.024)" fill="#aa8023"/>
        <path id="Path_16908" data-name="Path 16908" d="M23.815,3.728l-2.622-2.34L17.947.327A.709.709,0,0,0,17.2.534L14.59,3.369l.471,2.268a1.088,1.088,0,0,0,1.887-.981l-.1-.485.85-.93a.822.822,0,0,1,.92-.225l1.548.618,1.6,2.5a.873.873,0,0,1,.125.709l-.553,2.191a2.249,2.249,0,0,1-.9,1.208s-1.291.729-2.222,1.192l-3.033.971a1.259,1.259,0,0,0-.414,1.621h0a1.039,1.039,0,0,0,1.439.567l4.333-1.562a3.725,3.725,0,0,1,1.782-.191,5.081,5.081,0,0,1,2.456.85c.981.869,4.469-4.819,3.685-5.621a3.657,3.657,0,0,0-.662-.513,10.728,10.728,0,0,1-2.879-2.614L24.9,4.911A5.025,5.025,0,0,0,23.815,3.728Z" transform="translate(-0.345 -0.004)" fill="#fdce4c"/>
        <path id="Path_16909" data-name="Path 16909" d="M15.754,15a1.213,1.213,0,0,1-.446-.086,1.468,1.468,0,0,1-.777-.758,1.7,1.7,0,0,1-.109-1.134,1.364,1.364,0,0,1,.635-.87.221.221,0,0,1,.047-.02l3.016-.965c.85-.425,2.023-1.083,2.177-1.169a1.954,1.954,0,0,0,.784-1.055l.546-2.183a.567.567,0,0,0-.081-.456L19.986,3.864l-1.468-.59a.581.581,0,0,0-.648.159l-.746.819.068.33a1.468,1.468,0,0,1-.554,1.491A1.379,1.379,0,0,1,14.9,5.852a.293.293,0,0,1-.095-.163l-.471-2.268a.308.308,0,0,1,.071-.268L17.008.319A.957.957,0,0,1,18.015.042l3.247,1.063a.261.261,0,0,1,.089.052L23.969,3.5a5.272,5.272,0,0,1,1.077,1.158l.071.094A10.462,10.462,0,0,0,27.925,7.3a3.906,3.906,0,0,1,.709.551c.747.765-.883,3.583-1.879,4.85-.941,1.2-1.684,1.616-2.149,1.2a4.775,4.775,0,0,0-2.326-.782,3.525,3.525,0,0,0-1.668.179L16.3,14.858a1.148,1.148,0,0,1-.543.139Zm-.48-2.332a.819.819,0,0,0-.352.5,1.073,1.073,0,0,0,.071.72.934.934,0,0,0,.49.482.68.68,0,0,0,.6-.034.225.225,0,0,1,.038-.017l4.331-1.565a3.986,3.986,0,0,1,1.9-.2,5.334,5.334,0,0,1,2.588.9c.123.109.621-.1,1.43-1.134,1.409-1.793,2.15-3.827,1.919-4.058a3.294,3.294,0,0,0-.615-.471,11.006,11.006,0,0,1-2.951-2.683l-.071-.094a4.733,4.733,0,0,0-.992-1.07h-.009l-2.582-2.31L17.867.6a.466.466,0,0,0-.495.142l-2.5,2.711.417,2.01a.876.876,0,0,0,1.074.133.869.869,0,0,0,.327-.883l-.1-.485a.309.309,0,0,1,.069-.266l.85-.93A1.067,1.067,0,0,1,18.7,2.737l1.548.617a.264.264,0,0,1,.125.1l1.6,2.5a1.182,1.182,0,0,1,.162.945l-.55,2.2a2.551,2.551,0,0,1-.992,1.364.212.212,0,0,1-.033.021c-.013,0-1.308.738-2.234,1.2a.173.173,0,0,1-.034.014Z" transform="translate(-0.339 0.003)" fill="#aa8023"/>
      </g>
    </g>
  </g>
</svg>
