<svg xmlns="http://www.w3.org/2000/svg" width="48" height="48" viewBox="0 0 48 48">
  <g id="thumbs_up_outer_spacing_icon" transform="translate(-8464 -861)">
    <rect id="Rectangle_10627" data-name="Rectangle 10627" width="48" height="48" transform="translate(8464 861)" fill="#fff" opacity="0"/>
    <g id="Layer_2" data-name="Layer 2" transform="translate(8479.016 876.002)">
      <g id="Layer_1" data-name="Layer 1" transform="translate(-0.016 -0.002)">
        <path id="Union_67" data-name="Union 67" d="M.982,17.989a.939.939,0,0,1-1-.885.9.9,0,0,1,0-.114V8.075a.376.376,0,0,1,.343-.407h4.8a.2.2,0,0,1,.228.168c.018.091.129-.081.182-.159l.184-.331L7.332,3.69l.009-2.65c0-.228.534-.543.772-.717a2.17,2.17,0,0,1,1.375-.3,3.508,3.508,0,0,1,2.589,3.118,6.742,6.742,0,0,1-.4,3.018H16.23A2.118,2.118,0,0,1,18.221,8.3,2.03,2.03,0,0,1,17.7,9.661a1.84,1.84,0,0,1-.009,2.567,1.751,1.751,0,0,1-.457.335,1.853,1.853,0,0,1,.187.812A1.828,1.828,0,0,1,16.437,15a1.836,1.836,0,0,1-1.605,2.64H7.353c-1.149-.017-1.371-.287-1.556-.473v.442a.354.354,0,0,1-.372.39H2.34C1.739,18,1.214,18,.982,17.989Z" transform="translate(0.016 0.002)" fill="#aa8023"/>
        <path id="Union_67-2" data-name="Union 67" d="M5.3,22.222a.882.882,0,0,1-.938-.821.757.757,0,0,1,0-.1V13.242a.35.35,0,0,1,.316-.377H9.128a.351.351,0,0,1,.318.377v.144l.09-.046,2.171-4.7V6.091a.376.376,0,0,1,.142-.294,2.357,2.357,0,0,1,1.364-.457c.872,0,2.259,1.379,2.259,3.01a10.877,10.877,0,0,1-.6,3.006h4.739a1.884,1.884,0,0,1,1.882,1.882A1.86,1.86,0,0,1,21,14.494a1.683,1.683,0,0,1-.008,2.38,1.661,1.661,0,0,1-.433.311,1.661,1.661,0,0,1,.177.753,1.684,1.684,0,0,1-.93,1.5,1.658,1.658,0,0,1,.177.753,1.7,1.7,0,0,1-1.693,1.694H11.328a4.95,4.95,0,0,1-1.882-.434v.383a.351.351,0,0,1-.318.377s-1.405.01-2.54.01C6.022,22.231,5.524,22.228,5.3,22.222Z" transform="translate(-3.865 -4.73)" fill="#fdce4c"/>
        <path id="Path_16904" data-name="Path 16904" d="M102.864,83.27l-6.374.276,6.492.229Z" transform="translate(-85.465 -73.757)" fill="#aa8023"/>
        <path id="Path_16905" data-name="Path 16905" d="M108.288,106.23l-5.518.288,5.132.167Z" transform="translate(-91.027 -94.094)" fill="#aa8023"/>
        <path id="Path_16906" data-name="Path 16906" d="M115.5,126.4l-3.684.138,3.394.372Z" transform="translate(-99.044 -111.96)" fill="#aa8023"/>
      </g>
    </g>
  </g>
</svg>
