<svg xmlns="http://www.w3.org/2000/svg" width="48" height="48" viewBox="0 0 48 48">
  <g id="hello_outer_spacing_icon" transform="translate(-8532 -861)">
    <rect id="Rectangle_10629" data-name="Rectangle 10629" width="48" height="48" transform="translate(8532 861)" fill="#fff" opacity="0.004"/>
    <g id="Layer_2" data-name="Layer 2" transform="translate(8543.998 877.004)">
      <g id="Layer_1" data-name="Layer 1" transform="translate(0.002 -0.004)">
        <path id="Path_16910" data-name="Path 16910" d="M23.821,6.734a1.036,1.036,0,0,1-.612.976H23.2a8.828,8.828,0,0,0-1.237.649,15.392,15.392,0,0,0-2.793,2.313,6.425,6.425,0,0,1-1.346,1.042l-7.8,4.124A1.125,1.125,0,0,0,8.636,14.07v-.007l.271-.235A1.211,1.211,0,1,0,7.32,12l.439-.375a1.208,1.208,0,0,0,.414-.9,1.191,1.191,0,0,0-.295-.8,1.208,1.208,0,0,0-1.7-.125l-.542.457v-.006l.089-.077A1.211,1.211,0,0,0,4.451,8.142l4.8-2.984h0l.052-.039.572-.436,2.643-2h0l2-1.125a2.987,2.987,0,0,1,1.625-.369A6.725,6.725,0,0,0,19.108.45h0a1.037,1.037,0,0,1,.946-.026,6.072,6.072,0,0,1,2.612,2.728A7.323,7.323,0,0,1,23.821,6.734Z" transform="translate(-0.079 -0.002)" fill="#fdce4c"/>
        <path id="Path_16911" data-name="Path 16911" d="M10.017,16.13a.3.3,0,0,1-.2-.53A.824.824,0,0,0,8.8,14.306a.3.3,0,0,1-.419-.067.312.312,0,0,1,.04-.415l.272-.234A.91.91,0,0,0,7.5,12.216a.3.3,0,1,1-.395-.456l.439-.375a.905.905,0,0,0-1.19-1.365l-.531.462a.3.3,0,0,1-.451-.064.311.311,0,0,1,.052-.4l.089-.077A.911.911,0,0,0,4.57,8.414a.3.3,0,0,1-.277-.534L9.062,4.912h0l.625-.474,2.643-2,.019-.014.021-.012,2-1.125A3.3,3.3,0,0,1,16.153.875a5.805,5.805,0,0,0,2.6-.625l.2-.086A1.332,1.332,0,0,1,20.175.125a6.332,6.332,0,0,1,2.749,2.854,7.737,7.737,0,0,1,1.19,3.749,1.343,1.343,0,0,1-.794,1.25l-.02.007a8.483,8.483,0,0,0-1.186.625,15.437,15.437,0,0,0-2.749,2.273,6.653,6.653,0,0,1-1.412,1.086l-7.8,4.124A.3.3,0,0,1,10.017,16.13Zm-.557-2.571a1.428,1.428,0,0,1,1.25,1.435.687.687,0,0,1-.009.134l6.975-3.687a6.077,6.077,0,0,0,1.277-.985A15.677,15.677,0,0,1,21.8,8.1a9.194,9.194,0,0,1,1.28-.671l.019-.007a.729.729,0,0,0,.42-.694h0A7.114,7.114,0,0,0,22.4,3.282,5.813,5.813,0,0,0,19.933.68a.74.74,0,0,0-.661,0,.226.226,0,0,1-.051.027l-.226.1a6.444,6.444,0,0,1-2.866.666,2.687,2.687,0,0,0-1.46.33L12.688,2.915,9.452,5.374a.3.3,0,0,1-.045.034L5.486,7.846a1.517,1.517,0,0,1,.945,1.423v.012a1.507,1.507,0,0,1,1.851,2.124,1.511,1.511,0,0,1,1.177,2.153Z" transform="translate(-0.073 0.004)" fill="#aa8023"/>
        <path id="Path_16912" data-name="Path 16912" d="M9.391,5.193l.577-.449a.124.124,0,0,1,0,.012Z" transform="translate(-0.164 -0.078)" fill="#fff"/>
        <path id="Path_16913" data-name="Path 16913" d="M9.386,5.489A.3.3,0,0,1,9.2,4.95L9.779,4.5a.3.3,0,0,1,.467.342.333.333,0,0,1-.017.042.294.294,0,0,1-.086.1l-.574.436a.3.3,0,0,1-.184.061Z" transform="translate(-0.158 -0.073)" fill="#333"/>
        <path id="Path_16914" data-name="Path 16914" d="M17.494,11.848a1.375,1.375,0,0,1,.521.845,1.171,1.171,0,0,1-.216.917,1.278,1.278,0,0,1-1.75.174l-.672-.515a1.266,1.266,0,0,1,.306,1.761h0a1.266,1.266,0,0,1-1.78.171l-.581-.441a1.027,1.027,0,0,1-.025,1.7h0c-.576.512-1.5.125-2.057-.309L9.331,14.7l.211.161L6.579,12.6a15.861,15.861,0,0,1-1.95-1.862A11.98,11.98,0,0,0,2.2,8.511a11.054,11.054,0,0,0-1.3-.9L.89,7.6A1.155,1.155,0,0,1,.313,6.5,6.668,6.668,0,0,1,1.945,3.066,5.88,5.88,0,0,1,5.107.8a1.276,1.276,0,0,1,1.043.21h0c.765.442,1.228,1.361,2.578,1.7a9.931,9.931,0,0,1,3.2,1.865A30.366,30.366,0,0,0,14.8,6.733l4.174,3.183a1.265,1.265,0,0,1,.3,1.761h0a1.264,1.264,0,0,1-1.778.171Z" transform="translate(-0.007 -0.009)" fill="#fdce4c"/>
        <path id="Path_16915" data-name="Path 16915" d="M12.622,17a2.768,2.768,0,0,1-1.573-.616L9.142,14.933h0L6.392,12.839a16.183,16.183,0,0,1-2-1.908A9.373,9.373,0,0,0,2.593,9.2c-.17-.125-.36-.279-.582-.457A10.9,10.9,0,0,0,.75,7.865,1.47,1.47,0,0,1,.008,6.456,6.967,6.967,0,0,1,1.7,2.87,6.116,6.116,0,0,1,5.035.508a1.577,1.577,0,0,1,1.282.25,4.616,4.616,0,0,1,.776.625A3.665,3.665,0,0,0,8.8,2.414,10.122,10.122,0,0,1,12.11,4.337a22.215,22.215,0,0,0,2.056,1.586c.181.125.387.25.8.565l4.176,3.185a1.657,1.657,0,0,1,.636,1.033,1.456,1.456,0,0,1-1.311,1.718,1.526,1.526,0,0,1-.214,0,1.523,1.523,0,0,1-.222,1.358,1.524,1.524,0,0,1-1.827.417,1.447,1.447,0,0,1-.291,1,1.541,1.541,0,0,1-1.855.434,1.418,1.418,0,0,1-.582,1.055A1.25,1.25,0,0,1,12.622,17Zm-2.9-2.387,1.693,1.291c.407.311,1.217.727,1.673.322a.831.831,0,0,0,.367-.646.769.769,0,0,0-.324-.591h0a.3.3,0,0,1,.366-.48l.58.442a.965.965,0,0,0,1.356-.115.864.864,0,0,0,.157-.681,1.053,1.053,0,0,0-.406-.656h0a.3.3,0,1,1,.366-.48l.667.509a.978.978,0,0,0,1.333-.111.875.875,0,0,0,.159-.681,1.057,1.057,0,0,0-.4-.652H17.3a.3.3,0,0,1,.366-.48h0a1.048,1.048,0,0,0,.741.219.851.851,0,0,0,.774-1.014,1.055,1.055,0,0,0-.407-.657l-4.17-3.188c-.4-.3-.6-.427-.774-.544a21.694,21.694,0,0,1-2.1-1.625,9.81,9.81,0,0,0-3.088-1.8A4.277,4.277,0,0,1,6.685,1.824,4.115,4.115,0,0,0,6,1.274L5.97,1.258a.972.972,0,0,0-.8-.164,5.6,5.6,0,0,0-3,2.158A6.361,6.361,0,0,0,.609,6.519a.849.849,0,0,0,.431.82,11.247,11.247,0,0,1,1.35.931c.219.175.406.321.574.451a9.9,9.9,0,0,1,1.895,1.818,15.746,15.746,0,0,0,1.891,1.813l2.966,2.262Z" transform="translate(-0.002 -0.004)" fill="#aa8023"/>
        <path id="Path_16916" data-name="Path 16916" d="M17.813,12.358a.3.3,0,0,1-.181-.061L14.595,10a.3.3,0,0,1,.365-.481L18,11.815a.3.3,0,0,1-.182.542Z" transform="translate(-0.252 -0.159)" fill="#aa8023"/>
        <path id="Path_16917" data-name="Path 16917" d="M15.716,13.848a.3.3,0,0,1-.182-.061l-2.651-2.01a.3.3,0,0,1,.365-.48L15.9,13.305a.3.3,0,0,1-.182.542Z" transform="translate(-0.222 -0.19)" fill="#aa8023"/>
        <path id="Path_16918" data-name="Path 16918" d="M13.687,15.409a.3.3,0,0,1-.182-.061L11.137,13.56a.3.3,0,1,1,.365-.48l2.361,1.787a.3.3,0,0,1-.182.542Z" transform="translate(-0.192 -0.22)" fill="#aa8023"/>
        <path id="Path_16919" data-name="Path 16919" d="M6.9,9.022a1.207,1.207,0,0,1-.415.9L6.4,10l-1.125.976A1.212,1.212,0,0,1,3.68,9.147L4.893,8.094l.32-.2A1.208,1.208,0,0,1,6.9,9.02Z" transform="translate(-0.058 -0.13)" fill="#fdce4c"/>
        <path id="Path_16920" data-name="Path 16920" d="M4.476,11.569H4.367a1.513,1.513,0,0,1-.886-2.652L4.694,7.865a.222.222,0,0,1,.039-.029l.317-.2a.25.25,0,0,1,.04-.021A1.511,1.511,0,0,1,7.2,9.021h0a1.515,1.515,0,0,1-.52,1.125L5.466,11.2A1.5,1.5,0,0,1,4.476,11.569Zm.595-3.237L3.876,9.369A.91.91,0,1,0,5.07,10.743L6.283,9.689A.91.91,0,0,0,5.35,8.157ZM6.9,9.017Z" transform="translate(-0.053 -0.125)" fill="#aa8023"/>
        <path id="Path_16921" data-name="Path 16921" d="M10.133,12.739a1.215,1.215,0,0,1-.416.9l-.27.234-.942.821A1.212,1.212,0,1,1,6.91,12.869l1.037-.9.182-.159a1.211,1.211,0,0,1,2,.93Z" transform="translate(-0.114 -0.195)" fill="#fdce4c"/>
        <path id="Path_16922" data-name="Path 16922" d="M7.7,15.287a1.512,1.512,0,0,1-1-2.651l1.222-1.061a1.512,1.512,0,0,1,2.5,1.162h0a1.511,1.511,0,0,1-.52,1.125L8.7,14.917A1.51,1.51,0,0,1,7.7,15.287Zm1.212-3.472a.91.91,0,0,0-.595.22L7.1,13.091a.912.912,0,0,0,1.2,1.375L9.517,13.41a.909.909,0,0,0-.6-1.595Zm1.211.922Z" transform="translate(-0.109 -0.189)" fill="#aa8023"/>
        <path id="Path_16923" data-name="Path 16923" d="M8.957,10.494a1.211,1.211,0,0,1-.414.9l-.44.375-.184.165-1.037.9A1.206,1.206,0,1,1,5.3,11.011l1.125-.98.532-.462a1.211,1.211,0,0,1,1.7.125,1.2,1.2,0,0,1,.3.8Z" transform="translate(-0.086 -0.156)" fill="#fdce4c"/>
        <path id="Path_16924" data-name="Path 16924" d="M6.089,13.421H5.981A1.507,1.507,0,0,1,5.1,10.777L6.755,9.336a1.508,1.508,0,0,1,2.5,1.156h0a1.508,1.508,0,0,1-.517,1.125l-1.66,1.436a1.492,1.492,0,0,1-.989.369ZM7.742,9.572a.894.894,0,0,0-.591.22L5.494,11.233A.9.9,0,1,0,6.678,12.6l1.661-1.445a.906.906,0,0,0,.087-1.275A.9.9,0,0,0,7.8,9.57.565.565,0,0,0,7.742,9.572Zm1.21.916Z" transform="translate(-0.081 -0.151)" fill="#aa8023"/>
        <path id="Path_16925" data-name="Path 16925" d="M11.268,14.849a1.125,1.125,0,0,1-.386.839l-.582.5a1.126,1.126,0,0,1-1.477-1.7l.571-.5a.847.847,0,0,1,.087-.066,1.125,1.125,0,0,1,1.787.932Z" transform="translate(-0.147 -0.232)" fill="#fdce4c"/>
        <path id="Path_16926" data-name="Path 16926" d="M9.551,16.764a1.428,1.428,0,0,1-.937-2.506l.581-.5a1.241,1.241,0,0,1,.125-.092,1.426,1.426,0,0,1,2.249,1.186h0a1.428,1.428,0,0,1-.491,1.063l-.581.5A1.428,1.428,0,0,1,9.551,16.764Zm.586-2.758a.836.836,0,0,0-.48.154.815.815,0,0,0-.067.052l-.579.5a.827.827,0,1,0,1.082,1.25l.581-.5a.824.824,0,0,0,.284-.614h0a.822.822,0,0,0-.821-.842Z" transform="translate(-0.142 -0.227)" fill="#aa8023"/>
        <path id="Path_16927" data-name="Path 16927" d="M13.991,7.612l-.886-1.563.241-1.6-.955-1.56L9.977,4.712a1.828,1.828,0,0,0,.291,1.47l1.542,2.731a1.242,1.242,0,0,0,1.806.512A1.276,1.276,0,0,0,13.991,7.612Z" transform="translate(-0.173 -0.046)" fill="#fdce4c"/>
        <path id="Path_16928" data-name="Path 16928" d="M12.913,9.917a1.562,1.562,0,0,1-1.365-.865L10,6.324a2.1,2.1,0,0,1-.316-1.711.3.3,0,0,1,.1-.146l2.417-1.823a.3.3,0,0,1,.364.481L10.236,4.887a1.683,1.683,0,0,0,.29,1.141L12.068,8.76a.942.942,0,0,0,1.395.4.978.978,0,0,0,.261-1.4l-.886-1.568a.3.3,0,0,1-.036-.194l.236-1.6a.3.3,0,1,1,.6.09l-.222,1.5.835,1.478a1.58,1.58,0,0,1-.487,2.223A1.742,1.742,0,0,1,12.913,9.917Z" transform="translate(-0.168 -0.041)" fill="#aa8023"/>
        <path id="Path_16929" data-name="Path 16929" d="M14.856,6.745a3.418,3.418,0,0,1-.375-.014.3.3,0,0,1-.277-.325.3.3,0,0,1,.325-.276,6.815,6.815,0,0,0,3.809-1.142.3.3,0,1,1,.344.5A7.547,7.547,0,0,1,14.856,6.745Z" transform="translate(-0.247 -0.081)" fill="#aa8023"/>
      </g>
    </g>
  </g>
</svg>
