<svg xmlns="http://www.w3.org/2000/svg" width="48" height="48" viewBox="0 0 48 48">
  <g id="strength_outer_spacing_icon" transform="translate(-8600 -861)">
    <rect id="Rectangle_10631" data-name="Rectangle 10631" width="48" height="48" transform="translate(8600 861)" fill="#fff" opacity="0.004"/>
    <g id="Layer_2" data-name="Layer 2" transform="translate(8614 876)">
      <g id="Layer_15" data-name="Layer 15" transform="translate(0 0)">
        <path id="Path_16934" data-name="Path 16934" d="M.972,16.345a5.71,5.71,0,0,0,1.759,1.646c2.022,1.192,4.388.736,10.59-1.154,2.086-.636,4.607-1.435,7.462-2.4C21.645,8.4,17.668,7.61,17.668,7.61a7.821,7.821,0,0,0-1.8-.508C12.107,6.512,9.019,8.889,8.1,9.654c-1.048.621-1.307.736-2.359,1.354L5.608,8.773l-.5-4.083L.6,6.085l-.59,7.607A3.876,3.876,0,0,0,.972,16.345Z" transform="translate(0 -0.648)" fill="#aa8023"/>
        <path id="Path_16935" data-name="Path 16935" d="M6.881.045a4.221,4.221,0,0,1,.8.439,2.15,2.15,0,0,1,.639,2.68L6.6,4.763.691,5.437a21.658,21.658,0,0,1,2.55-4.156A6.712,6.712,0,0,1,4.782.472,3.853,3.853,0,0,1,6.881.045Z" transform="translate(-0.095 0)" fill="#aa8023"/>
        <path id="Path_16936" data-name="Path 16936" d="M1.641,16.034a5.362,5.362,0,0,0,1.649,1.546c1.9,1.117,4.124.693,9.955-1.085,1.96-.6,4.329-1.348,7.014-2.259.809-5.668-2.865-6.021-2.865-6.021a7.369,7.369,0,0,0-1.683-.475c-3.538-.55-6.441,1.685-7.3,2.4L5.451,11.874,5.215,9.143,4.738,5.316,1.287,6.388l-.554,7.15A3.657,3.657,0,0,0,1.641,16.034Z" transform="translate(-0.1 -0.734)" fill="#fdce4c"/>
        <path id="Path_16937" data-name="Path 16937" d="M7.206.879l.448.366a1.259,1.259,0,0,1,.041,1.773L6.843,4.063,1.381,5.76A20.1,20.1,0,0,1,3.774,1.854,6.087,6.087,0,0,1,5.223,1.1,2.654,2.654,0,0,1,7.206.879Z" transform="translate(-0.19 -0.106)" fill="#fdce4c"/>
        <path id="Path_16938" data-name="Path 16938" d="M14.8,15.2a3.653,3.653,0,0,1-4.139-.437.32.32,0,0,1-.06-.408.237.237,0,0,1,.364-.011h0a3.149,3.149,0,0,0,3.564.325A3.145,3.145,0,0,0,16.362,11.6a.241.241,0,0,1,.223-.288.323.323,0,0,1,.294.289A3.65,3.65,0,0,1,14.8,15.2Z" transform="translate(-1.456 -1.561)" fill="#aa8023"/>
      </g>
    </g>
  </g>
</svg>
