<svg xmlns="http://www.w3.org/2000/svg" width="48" height="48" viewBox="0 0 48 48">
  <g id="peace_outer_spacing_icon" transform="translate(-8668 -861)">
    <rect id="Rectangle_10630" data-name="Rectangle 10630" width="48" height="48" transform="translate(8668 861)" fill="#fff" opacity="0.004"/>
    <g id="Layer_2" data-name="Layer 2" transform="translate(8685.999 875.001)">
      <g id="Layer_1" data-name="Layer 1" transform="translate(0.001 -0.001)">
        <path id="Path_16939" data-name="Path 16939" d="M11.313,12.332a1.1,1.1,0,0,1-.973,1.249h0A1.188,1.188,0,0,1,8.955,12.7L6.826,1.775A1.1,1.1,0,0,1,7.8.526h0A1.189,1.189,0,0,1,9.186,1.4Z" transform="translate(-3.234 -0.241)" fill="#fdce4c"/>
        <path id="Path_16940" data-name="Path 16940" d="M9.863,13.626a1.593,1.593,0,0,1-.854-.244,1.332,1.332,0,0,1-.614-.865L6.265,1.578A1.238,1.238,0,0,1,6.513.573,1.514,1.514,0,0,1,7.478.02,1.616,1.616,0,0,1,8.594.244a1.331,1.331,0,0,1,.613.865l2.129,10.936a1.235,1.235,0,0,1-.249,1.006,1.514,1.514,0,0,1-.964.553,1.651,1.651,0,0,1-.262.023ZM7.739.54a.973.973,0,0,0-.158.013.824.824,0,0,0-.731.939L8.979,12.417a.8.8,0,0,0,.367.525.973.973,0,0,0,.673.135.912.912,0,0,0,.581-.334.743.743,0,0,0,.149-.606h0L8.622,1.205a.8.8,0,0,0-.37-.523A.962.962,0,0,0,7.739.54Z" transform="translate(-2.966 0.001)" fill="#aa8023"/>
        <path id="Path_16941" data-name="Path 16941" d="M1.712,18.232v3.677A5.24,5.24,0,0,0,1.948,23.4a12.366,12.366,0,0,1,.63,3.166A6.957,6.957,0,0,1,2.543,27.8v.011a.9.9,0,0,0,.541.9,8,8,0,0,0,3.637.681,6.478,6.478,0,0,0,3.6-.826.9.9,0,0,0,.433-.743h0a5.516,5.516,0,0,1,.8-2.61,2.487,2.487,0,0,0,.469-1.415V21.511Z" transform="translate(-0.813 -8.66)" fill="#fdce4c"/>
        <path id="Path_16942" data-name="Path 16942" d="M6.4,29.414A8.273,8.273,0,0,1,2.66,28.7a1.166,1.166,0,0,1-.69-1.159v-.025a6.758,6.758,0,0,0,.039-1.181,12.186,12.186,0,0,0-.621-3.11,5.447,5.447,0,0,1-.245-1.563V17.984a.283.283,0,0,1,.3-.269h0a.283.283,0,0,1,.3.268V21.66a4.919,4.919,0,0,0,.225,1.424,12.526,12.526,0,0,1,.64,3.224,7.189,7.189,0,0,1-.043,1.279s0,.019,0,.024a.634.634,0,0,0,.39.621A7.618,7.618,0,0,0,6.4,28.88h.045a6.193,6.193,0,0,0,3.426-.773.64.64,0,0,0,.315-.527.249.249,0,0,1,0-.04q.013-.1.026-.216a5.352,5.352,0,0,1,.816-2.5,2.235,2.235,0,0,0,.425-1.272V21.265a.3.3,0,0,1,.594,0v2.283a2.731,2.731,0,0,1-.516,1.556,4.848,4.848,0,0,0-.729,2.278c-.009.075-.017.144-.025.207a1.153,1.153,0,0,1-.557.947,6.748,6.748,0,0,1-3.774.878Z" transform="translate(-0.543 -8.414)" fill="#aa8023"/>
        <path id="Path_16943" data-name="Path 16943" d="M17.274,2.263a1.256,1.256,0,0,0-.848-.324,1.151,1.151,0,0,0-1.19,1.073v7.678l2.393.164V3.046a1.068,1.068,0,0,0-.356-.783Z" transform="translate(-7.238 -0.92)" fill="#fdce4c"/>
        <path id="Path_16944" data-name="Path 16944" d="M17.36,10.892a.283.283,0,0,1-.3-.268V2.81a.818.818,0,0,0-.269-.6.935.935,0,0,0-.633-.24h0a.865.865,0,0,0-.9.813v7.678a.3.3,0,0,1-.594,0V2.787a1.43,1.43,0,0,1,1.489-1.345,1.55,1.55,0,0,1,1.06.4,1.32,1.32,0,0,1,.44.973v7.809a.283.283,0,0,1-.3.268Z" transform="translate(-6.97 -0.684)" fill="#aa8023"/>
        <path id="Path_16945" data-name="Path 16945" d="M9.564,27.449a.283.283,0,0,1-.294-.268,5.214,5.214,0,0,1,1.4-4.061,2.956,2.956,0,0,1,1.838-.763.269.269,0,1,1,0,.535h0c-.108,0-2.638.055-2.638,4.289a.283.283,0,0,1-.306.268Z" transform="translate(-4.403 -10.618)" fill="#aa8023"/>
        <path id="Path_16946" data-name="Path 16946" d="M2.448,20.164A1.163,1.163,0,0,1,1.1,19.311l-.512-2.6a1.071,1.071,0,0,1,.945-1.22h0a1.162,1.162,0,0,1,1.353.852l.512,2.6A1.07,1.07,0,0,1,2.448,20.164Z" transform="translate(-0.27 -7.352)" fill="#fdce4c"/>
        <path id="Path_16947" data-name="Path 16947" d="M1.975,20.205a1.432,1.432,0,0,1-1.44-1.089l-.512-2.6a1.211,1.211,0,0,1,.241-.986,1.473,1.473,0,0,1,.944-.541,1.572,1.572,0,0,1,1.094.216,1.3,1.3,0,0,1,.6.851l.512,2.6a1.207,1.207,0,0,1-.241.986,1.477,1.477,0,0,1-.944.541A1.6,1.6,0,0,1,1.975,20.205Zm-.508-4.7a.931.931,0,0,0-.155.012.882.882,0,0,0-.561.324.715.715,0,0,0-.143.585l.512,2.6a.87.87,0,0,0,1.008.635.877.877,0,0,0,.561-.324.72.72,0,0,0,.144-.586l-.512-2.6a.773.773,0,0,0-.358-.505A.923.923,0,0,0,1.467,15.5Z" transform="translate(-0.001 -7.11)" fill="#aa8023"/>
        <path id="Path_16948" data-name="Path 16948" d="M5.7,13.612a1.1,1.1,0,0,0-.968,1.249L5.507,18.8a1.193,1.193,0,0,0,1.385.873h0a1.1,1.1,0,0,0,.973-1.249l-.776-3.939A1.193,1.193,0,0,0,5.7,13.612Z" transform="translate(-2.239 -6.457)" fill="#fdce4c"/>
        <path id="Path_16949" data-name="Path 16949" d="M6.42,19.713a1.589,1.589,0,0,1-.851-.242,1.333,1.333,0,0,1-.615-.865l-.774-3.942A1.365,1.365,0,0,1,5.387,13.1h0a1.488,1.488,0,0,1,1.73,1.09l.774,3.939a1.233,1.233,0,0,1-.245,1.006,1.506,1.506,0,0,1-.962.554A1.669,1.669,0,0,1,6.42,19.713Zm-.929-6.082a.823.823,0,0,0-.728.939l.78,3.94a.8.8,0,0,0,.37.522.973.973,0,0,0,.672.134.909.909,0,0,0,.581-.334.741.741,0,0,0,.148-.6l-.781-3.94A.9.9,0,0,0,5.491,13.631Z" transform="translate(-1.974 -6.214)" fill="#aa8023"/>
        <path id="Path_16950" data-name="Path 16950" d="M13.881,18.619H10.8A1.167,1.167,0,0,0,9.484,19.79c0,.477.421,1.081,1.369,1.081h1.774l1.253.884,1.83-.059C15.725,19.875,15.9,18.619,13.881,18.619Z" transform="translate(-4.505 -8.844)" fill="#fdce4c"/>
        <path id="Path_16951" data-name="Path 16951" d="M13.612,21.78a.324.324,0,0,1-.183-.056L12.257,20.9H10.585a1.49,1.49,0,0,1-1.665-1.347,1.447,1.447,0,0,1,1.608-1.438h3.085a2.265,2.265,0,0,1,1.58.466c.58.529.567,1.4.55,2.494v.384a.284.284,0,0,1-.3.266h0a.283.283,0,0,1-.294-.269v-.388c.015-.973.026-1.74-.38-2.111a1.7,1.7,0,0,0-1.157-.306H10.527c-.635,0-1.014.337-1.014.9,0,.324.285.812,1.072.812h1.775a.324.324,0,0,1,.183.057l1.252.884a.25.25,0,0,1,.052.375A.309.309,0,0,1,13.612,21.78Z" transform="translate(-4.237 -8.602)" fill="#aa8023"/>
      </g>
    </g>
  </g>
</svg>
