<svg xmlns="http://www.w3.org/2000/svg" width="48" height="48" viewBox="0 0 48 48">
  <g id="keep_it_100_outer_spacing_icon" transform="translate(-8804 -861)">
    <rect id="Rectangle_10632" data-name="Rectangle 10632" width="48" height="48" transform="translate(8804 861)" fill="#fff" opacity="0.004"/>
    <g id="Layer_2" data-name="Layer 2" transform="translate(8818.019 874.998)">
      <g id="Layer_15" data-name="Layer 15" transform="translate(-0.018 0.002)">
        <path id="Path_16961" data-name="Path 16961" d="M17.7,9.61a6.512,6.512,0,0,0,1.531-3.1,11.316,11.316,0,0,0,0-4.719C18.849.771,17.165.3,16.3.09a4.058,4.058,0,0,0-2.856.538,2.29,2.29,0,0,1-2.277.249,3.339,3.339,0,0,0-2.4.455A6.019,6.019,0,0,0,7.193,2.614,2.5,2.5,0,0,0,6.816,1,1.991,1.991,0,0,0,4.746.586C4.29.752,3.132,2.2,1.888,2.987c-.672.426-1.86,1.2-1.9,1.987A1.5,1.5,0,0,0,1.267,6.542a1.712,1.712,0,0,0,.784-.123S1.016,10.682.809,11.8s-.244,2.99.295,3.694a4.291,4.291,0,0,0,1.568.745,4.354,4.354,0,0,0-1.284.62,2.329,2.329,0,0,0-.662,2.111A1.332,1.332,0,0,0,2.134,20c.787.041,3.146-.993,4.719-1.821S13.6,15.655,13.6,15.655s3.394-.993,4.592-1.284c.717-.174,1.242-1.945.5-2.194a12,12,0,0,0-2.688,0s.083-.911.083-1.325C16.088,10.381,17.04,10.273,17.7,9.61ZM4.277,12.882l.166-1.546c.055.718,1.1,1.27,1.1,1.27A5.825,5.825,0,0,0,4.277,12.882Zm4.567-4.72c-.491.719-1.159,1.448-1.568,1.12-.467-.373-.367-.913.248-2.4A4.516,4.516,0,0,1,9.5,4.436C10.335,4.436,9.466,7.251,8.844,8.162Zm1.945,2.787a5.412,5.412,0,0,0,.663-1.214c.112.442,1.159.773,1.159.773S11.562,10.728,10.79,10.948Zm3.436-3.2a2.609,2.609,0,0,1-.207-1.9,3.474,3.474,0,0,1,1.366-2.111c.622-.249.784.58.784.58a3.156,3.156,0,0,1-.121,1.83C15.682,7.1,14.8,8.245,14.226,7.747Z" transform="translate(0.018 -0.002)"/>
        <path id="Path_16962" data-name="Path 16962" d="M8.967,7.574A13.7,13.7,0,0,1,7.022,9.355c-1.057.784-2.24,1.531-2.028,2.153a1.521,1.521,0,0,0,2.028.538c-.289,1.655-1.035,5.093-1.154,6.292s-.248,2.688.539,3.188c.455.287,1.49-.083,1.568-1.284a32.3,32.3,0,0,1,.663-5.174c.662-2.36,2.111-4.967,2.24-6.292s-.5-1.941-1.082-1.821A1.282,1.282,0,0,0,8.967,7.574Z" transform="translate(-4.41 -6.162)" fill="#ef4335"/>
        <path id="Path_16963" data-name="Path 16963" d="M56.662,5.433a4.84,4.84,0,0,0-3.145-.7c-.786.207-1.781,1.035-2.36,1.035S49.8,5.06,48.3,5.639a8.844,8.844,0,0,0-3.1,2.98,9.41,9.41,0,0,0-1.408,5.962c.332,2.236,2.4,1.835,3.024,1.669a5.9,5.9,0,0,0,2.606-2.208,8.492,8.492,0,0,0,.869-1.987,3.412,3.412,0,0,0,1.7,2.111A3.489,3.489,0,0,0,55.009,14c2.178-1.065,2.525-3.795,2.606-4.43C57.735,8.633,58.174,6.352,56.662,5.433ZM48.59,11.145c-.455,2.071-1.655,3.146-2.6,2.9-.771-.2-.927-1.7-.207-3.188C47.018,8.288,48.136,8,48.136,8c1.2-.041.895,1.145.455,3.146ZM55.508,9.2a5.08,5.08,0,0,1-1.159,2.607c-.411.466-1.284.952-1.863.124-.607-.867-.249-2.773.248-3.642A2.947,2.947,0,0,1,53.893,7.13C55.421,6.922,55.756,7.977,55.508,9.2Z" transform="translate(-38.817 -4.144)" fill="#ef4335"/>
        <path id="Path_16964" data-name="Path 16964" d="M20.333,114.228s-3.648,1.365-4.432,1.655-2.24,1.159-2.277,1.78.083,1.242.952,1.12,5.092-2.153,6.541-2.732,4.967-1.615,5.672-1.863,2.649-.456,3.145-.746,1.035-1.076.58-1.282-4.637.579-5.836.911S20.333,114.228,20.333,114.228Z" transform="translate(-12.091 -99.568)" fill="#ef4335"/>
        <path id="Path_16965" data-name="Path 16965" d="M47.174,97.3s-.083-.662-2.111-.207c-1.464.328-6.168,1.738-6.914,1.987s-1.738.448-2.153.662c-.7.373-.784,1.408-.206,1.532a2.535,2.535,0,0,0,1.987-.207c1.159-.456,2.4-.828,3.808-1.242s3.6-.828,4.388-1.076S47.338,98.006,47.174,97.3Z" transform="translate(-31.439 -86.079)" fill="#ef4335"/>
        <path id="Path_16966" data-name="Path 16966" d="M103.51,23.866l1.158-.166a4.229,4.229,0,0,0-.662,1.284C103.923,25.483,104.048,24.239,103.51,23.866Z" transform="translate(-91.915 -21.046)"/>
      </g>
    </g>
  </g>
</svg>
