<svg xmlns="http://www.w3.org/2000/svg" xmlns:xlink="http://www.w3.org/1999/xlink" width="48" height="48" viewBox="0 0 48 48">
  <defs>
    <radialGradient id="radial-gradient" cx="23.091" cy="7.524" r="0.001" gradientUnits="objectBoundingBox">
      <stop offset="0" stop-color="#fde990"/>
      <stop offset="1" stop-color="#face57"/>
    </radialGradient>
  </defs>
  <g id="care_outer_spacing_icon" transform="translate(-8736 -861)">
    <rect id="Rectangle_10633" data-name="Rectangle 10633" width="48" height="48" transform="translate(8736 861)" fill="#fff" opacity="0.004"/>
    <g id="Layer_2" data-name="Layer 2" transform="translate(8752 878)">
      <g id="Layer_15" data-name="Layer 15" transform="translate(0 -2)">
        <circle id="Oval" cx="7.539" cy="7.539" r="7.539" transform="translate(0.844 0.818)" fill="url(#radial-gradient)"/>
        <circle id="Oval-2" data-name="Oval" cx="8.357" cy="8.357" r="8.357" transform="translate(0.026 0)" fill="#c69120"/>
        <circle id="Oval-3" data-name="Oval" cx="7.539" cy="7.539" r="7.539" transform="translate(0.844 0.818)" fill="#fdce4c"/>
        <path id="Subtraction_58" data-name="Subtraction 58" d="M2.869,13.456A7.615,7.615,0,0,1,.781,10.883,7.535,7.535,0,0,1,2.208,2.208a7.54,7.54,0,0,1,10.469-.186A7.539,7.539,0,0,0,2.869,13.455Z" transform="translate(0.845 0.819)" fill="#fff5a2"/>
        <path id="Path_16952" data-name="Path 16952" d="M12.188,18.606a3.409,3.409,0,0,1-3.261-2.119.3.3,0,0,1,.124-.366.223.223,0,0,1,.307.146h0a2.939,2.939,0,0,0,2.83,1.782,2.942,2.942,0,0,0,2.831-1.782.224.224,0,0,1,.307-.145.3.3,0,0,1,.123.365A3.409,3.409,0,0,1,12.188,18.606Z" transform="translate(-3.805 -6.062)" fill="#3c1f1f"/>
        <path id="Path_16953" data-name="Path 16953" d="M7.883,16.725a.279.279,0,1,1,0-.557,1.052,1.052,0,0,0,.753-.45.209.209,0,0,1,.329-.047.316.316,0,0,1,.04.391A1.5,1.5,0,0,1,7.883,16.725Z" transform="translate(-3.249 -5.852)" fill="#3c1f1f"/>
        <path id="Path_16954" data-name="Path 16954" d="M20.309,16.726a1.5,1.5,0,0,1-1.122-.663.317.317,0,0,1,.039-.392.211.211,0,0,1,.329.047,1.039,1.039,0,0,0,.753.451.279.279,0,0,1,0,.557Z" transform="translate(-8.177 -5.853)" fill="#3c1f1f"/>
        <path id="Path_16955" data-name="Path 16955" d="M20.409,7.276a.279.279,0,0,1-.165-.055,3.24,3.24,0,0,0-1.784-.5.279.279,0,1,1,0-.557,3.732,3.732,0,0,1,2.117.613.279.279,0,0,1-.168.5Z" transform="translate(-7.768 -1.814)" fill="#3c1f1f"/>
        <path id="Path_16956" data-name="Path 16956" d="M7.27,7.276a.279.279,0,0,1-.164-.5A3.824,3.824,0,0,1,9.22,6.161a.279.279,0,1,1,0,.557,3.275,3.275,0,0,0-1.786.5A.279.279,0,0,1,7.27,7.276Z" transform="translate(-2.987 -1.814)" fill="#3c1f1f"/>
        <path id="Path_16957" data-name="Path 16957" d="M19.784,11.03a.279.279,0,0,1-.279-.279,1.114,1.114,0,0,0-2.229,0,.279.279,0,1,1-.557,0,1.672,1.672,0,1,1,3.343,0A.279.279,0,0,1,19.784,11.03Z" transform="translate(-7.144 -3.061)" fill="#3c1f1f"/>
        <path id="Path_16958" data-name="Path 16958" d="M10.056,11.03a.279.279,0,0,1-.279-.279,1.114,1.114,0,0,0-2.229,0,.279.279,0,1,1-.557,0,1.672,1.672,0,0,1,3.343,0A.279.279,0,0,1,10.056,11.03Z" transform="translate(-2.987 -3.061)" fill="#3c1f1f"/>
        <path id="Path_16959" data-name="Path 16959" d="M4.476,20.2A16.934,16.934,0,0,0,1.8,19.23a1.884,1.884,0,0,0-1.405.8,2.768,2.768,0,0,0-.167,2.476,5.1,5.1,0,0,0,2.745,2.342c1.273.334,2.507.436,3.312-.568A2.872,2.872,0,0,0,7.02,21.57a10.291,10.291,0,0,0-1-2.476c-.234-.267-.635-.6-.836-.6s-.836.2-.769.636A8.779,8.779,0,0,1,4.476,20.2Z" transform="translate(0 -7.083)" fill="#c6910d"/>
        <path id="Path_16960" data-name="Path 16960" d="M19.562,20.2a17.127,17.127,0,0,1,2.676-.97,1.883,1.883,0,0,1,1.405.8,2.771,2.771,0,0,1,.168,2.476,5.1,5.1,0,0,1-2.746,2.342c-1.273.334-2.507.436-3.312-.568a2.872,2.872,0,0,1-.736-2.711,10.291,10.291,0,0,1,1-2.476c.234-.267.636-.6.836-.6s.836.2.77.636A8.777,8.777,0,0,0,19.562,20.2Z" transform="translate(-7.229 -7.083)" fill="#c6910d"/>
      </g>
    </g>
  </g>
</svg>
